<svg id="Layer_1" data-name="Layer 1" xmlns="http://www.w3.org/2000/svg" viewBox="0 0 755.01 213.12"><defs><style>.cls-1{fill:#fff;}</style></defs><path class="cls-1" d="M135.39,64.45v34.8h33.8v26.1h-34.1v53c0,11.7,6.5,17.4,15.9,17.4a35.5,35.5,0,0,0,14.7-3.7l8.5,25.9a66.34,66.34,0,0,1-25.1,5.2c-26.6,1-44-14.2-44-44.8v-53H82.19V99.25h22.9V67.65Z" transform="translate(-82.19 -64.45)"/><path class="cls-1" d="M301.89,160.45c0,35.3-24.1,63.9-63.9,63.9s-63.8-28.6-63.8-63.9c0-35.1,24.4-63.9,63.4-63.9S301.89,125.35,301.89,160.45Zm-97.3,0c0,18.7,11.2,36.1,33.3,36.1s33.3-17.4,33.3-36.1c0-18.4-12.9-36.3-33.3-36.3C216,124.15,204.59,142.05,204.59,160.45Z" transform="translate(-82.19 -64.45)"/><path class="cls-1" d="M343.59,64.45v51.2C350.79,103,371,96,383.89,96c35.8,0,62.4,21.9,62.4,64.2,0,40.3-27.1,64.2-63.2,64.2-14.9,0-30.1-5-39.6-19.7l-2,16.9h-28.4v-154Zm2,95.8c0,22.1,16.4,36.1,35.6,36.1,19.4,0,34.8-14.7,34.8-36.1,0-22.1-15.4-35.8-34.8-35.8C362,124.45,345.59,138.85,345.59,160.25Z" transform="translate(-82.19 -64.45)"/><path class="cls-1" d="M536.39,131.65c-8.7-8.2-18.7-10.9-30.4-10.9-14.4,0-22.4,4.5-22.4,12.2,0,8,7.2,12.4,22.9,13.4,23.1,1.5,52.5,6.7,52.5,39.3,0,21.6-17.7,40.3-52.7,40.3-19.4,0-38.8-3.2-56.7-21.9l14.9-21.6c8.7,9.7,28.6,16.9,42.3,17.2,11.4.2,22.1-5.7,22.1-14.7,0-8.5-7-11.9-24.4-12.9-23.1-1.7-50.7-10.2-50.7-38.1,0-28.4,29.4-38.3,51.7-38.3,19.2,0,33.6,3.7,47.8,16.2Z" transform="translate(-82.19 -64.45)"/><path class="cls-1" d="M569.39,256.25V99h28.4l2,16.9c9.5-13.7,25.9-19.7,39.8-19.7,37.8,0,62.9,28.1,62.9,64.2,0,35.8-22.6,64.2-61.9,64.2-12.9,0-32.1-4-40.8-17.4v49h-30.4Zm102.8-95.8c0-19.2-12.9-34.8-34.8-34.8s-34.8,15.7-34.8,34.8,14.2,34.8,34.8,34.8S672.19,179.65,672.19,160.45Z" transform="translate(-82.19 -64.45)"/><path class="cls-1" d="M740.59,99.05l2.2,14.2c9.5-15.2,22.1-17.4,34.6-17.4,12.7,0,24.9,5,31.6,11.7L795.29,134c-6.2-5.2-11.9-8-21.9-8-15.9,0-30.6,8.5-30.6,31.1v64.7h-30.3V99.15Z" transform="translate(-82.19 -64.45)"/><path class="cls-1" d="M646.41,277.57a20.43,20.43,0,0,1-7.52-1.35,18,18,0,0,1-6-3.8,17.28,17.28,0,0,1-3.92-5.76,19.32,19.32,0,0,1,0-14.49,17.06,17.06,0,0,1,4-5.76,18.16,18.16,0,0,1,6-3.8,20.43,20.43,0,0,1,7.52-1.35,21.39,21.39,0,0,1,7.48,1.27,14.84,14.84,0,0,1,5.78,3.88l-2.34,2.4a13.42,13.42,0,0,0-5-3.22,17.23,17.23,0,0,0-5.81-1,16.54,16.54,0,0,0-6.1,1.09,14.44,14.44,0,0,0-8.06,7.81,15.71,15.71,0,0,0,0,11.75,14.39,14.39,0,0,0,8.06,7.83,16.39,16.39,0,0,0,6.05,1.1,18.1,18.1,0,0,0,5.79-.92,13.51,13.51,0,0,0,5-3.11l2.14,2.85a17.07,17.07,0,0,1-6,3.39A22.07,22.07,0,0,1,646.41,277.57Zm9.49-5V259.42h3.62V273Z" transform="translate(-82.19 -64.45)"/><path class="cls-1" d="M670.59,277.27l16.32-35.7h3.72L707,277.27h-4l-15-33.51h1.53l-15,33.51Zm6.42-9.54,1.13-3.06h20.75l1.12,3.06Z" transform="translate(-82.19 -64.45)"/><path class="cls-1" d="M719,277.27v-35.7h3.11l16.32,27.84h-1.64L753,241.57h3.11v35.7h-3.62v-30h.87l-14.89,25.5h-1.79l-15-25.5h1v30Z" transform="translate(-82.19 -64.45)"/><path class="cls-1" d="M777.58,274h21.48v3.27H773.81v-35.7h24.48v3.26H777.58Zm-.4-16.47h18.87v3.21H777.18Z" transform="translate(-82.19 -64.45)"/><path class="cls-1" d="M823.89,277.57a22.43,22.43,0,0,1-7.62-1.3,14.68,14.68,0,0,1-5.64-3.34l1.48-2.91a14.93,14.93,0,0,0,5.08,3.09,18.24,18.24,0,0,0,6.7,1.25,15,15,0,0,0,5.48-.84,6.72,6.72,0,0,0,3.12-2.27,5.43,5.43,0,0,0,1-3.16,4.71,4.71,0,0,0-1.2-3.37,8.35,8.35,0,0,0-3.13-2,37.06,37.06,0,0,0-4.29-1.3c-1.56-.37-3.13-.77-4.69-1.19a20.18,20.18,0,0,1-4.31-1.71,9,9,0,0,1-3.16-2.83,8.06,8.06,0,0,1-1.2-4.62,9,9,0,0,1,1.4-4.87,9.8,9.8,0,0,1,4.31-3.57,17.76,17.76,0,0,1,7.45-1.35,21.72,21.72,0,0,1,6,.84,17.12,17.12,0,0,1,5.1,2.32l-1.27,3a16.77,16.77,0,0,0-4.87-2.24,18.49,18.49,0,0,0-5-.72,13.93,13.93,0,0,0-5.31.87,6.71,6.71,0,0,0-3.08,2.32,5.66,5.66,0,0,0-1,3.29,4.73,4.73,0,0,0,1.2,3.37,7.91,7.91,0,0,0,3.16,2,38.14,38.14,0,0,0,4.31,1.28c1.57.37,3.12.78,4.67,1.22a22.75,22.75,0,0,1,4.28,1.71,8.88,8.88,0,0,1,3.16,2.78,7.83,7.83,0,0,1,1.2,4.54,8.76,8.76,0,0,1-1.42,4.82,10,10,0,0,1-4.37,3.57A18,18,0,0,1,823.89,277.57Z" transform="translate(-82.19 -64.45)"/></svg>