<?xml version="1.0" encoding="iso-8859-1"?>
<!-- Generator: Adobe Illustrator 19.0.0, SVG Export Plug-In . SVG Version: 6.00 Build 0)  -->
<svg xmlns="http://www.w3.org/2000/svg" xmlns:xlink="http://www.w3.org/1999/xlink" version="1.1" id="Layer_1" x="0px" y="0px" viewBox="0 0 512 512" style="enable-background:new 0 0 512 512;" xml:space="preserve">
<g>
	<path style="fill:#F5F5F5;" d="M268.737,56.648v56.889H512v-1.295c0-20.233-5.367-39.212-14.752-55.594   C497.248,56.648,268.737,56.648,268.737,56.648z"/>
	<rect x="268.74" y="170.43" style="fill:#F5F5F5;" width="243.26" height="56.888"/>
	<rect y="284.2" style="fill:#F5F5F5;" width="512" height="56.889"/>
</g>
<rect y="341.09" style="fill:#41479B;" width="512" height="56.889"/>
<path style="fill:#F5F5F5;" d="M0,400.241c0,19.838,5.165,38.467,14.212,54.628h483.575c9.048-16.161,14.212-34.79,14.212-54.628  v-2.261H0V400.241z"/>
<g>
	<path style="fill:#41479B;" d="M101.624,511.759h308.751c37.617-3.456,69.845-25.51,87.412-56.889H14.212   C31.78,486.249,64.007,508.302,101.624,511.759z"/>
	<path style="fill:#41479B;" d="M268.737,113.536V56.648h228.511C477.941,22.947,441.623,0.241,400,0.241H112   c-61.856,0-112,50.144-112,112v171.961h512v-56.889l0,0H268.737v-56.888v-0.001H512v-56.888L268.737,113.536L268.737,113.536z"/>
</g>
<polygon style="fill:#F5F5F5;" points="269.474,114.019 163.181,114.019 163.181,0.241 106.293,0.241 106.293,114.019 0,114.019   0,170.907 106.293,170.907 106.293,284.685 163.181,284.685 163.181,170.907 269.474,170.907 "/>
<g>
</g>
<g>
</g>
<g>
</g>
<g>
</g>
<g>
</g>
<g>
</g>
<g>
</g>
<g>
</g>
<g>
</g>
<g>
</g>
<g>
</g>
<g>
</g>
<g>
</g>
<g>
</g>
<g>
</g>
</svg>
