<?xml version="1.0" encoding="iso-8859-1"?>
<!-- Generator: Adobe Illustrator 19.0.0, SVG Export Plug-In . SVG Version: 6.00 Build 0)  -->
<svg version="1.1" id="Capa_1" xmlns="http://www.w3.org/2000/svg" xmlns:xlink="http://www.w3.org/1999/xlink" x="0px" y="0px"
	 viewBox="0 0 512 512" style="enable-background:new 0 0 512 512;" xml:space="preserve">
<g transform="translate(-1)">
	<path style="fill:#46B29D;" d="M328.61,98.163h0.088c1.971-0.012,3.923,0.379,5.738,1.148l71.683,29.484
		c4.07,1.723,7.249,5.049,8.787,9.193c1.537,4.144,1.297,8.739-0.665,12.699l-11.652,24.099
		c-5.942,12.252-10.388,25.174-13.242,38.488l-12.624,58.086c-1.107,5.424-5.003,9.857-10.24,11.652l-11.653,3.972
		c-5.094,1.809-8.94,6.053-10.241,11.299l-6.885,28.513c-0.25,1.103-0.635,2.17-1.148,3.178l-5.473,11.211
		c-2.003,4.139-5.709,7.201-10.152,8.386l-18.715,4.855c-7.018,1.83-11.893,8.196-11.829,15.448v11.211
		c-0.023,3.42-1.102,6.75-3.09,9.534l-19.51,26.748c-3.683,5.056-5.967,10.993-6.621,17.214l-6.091,56.585
		c-0.638,5.71-3.3,11.002-7.503,14.919c-4.172,3.812-9.621,5.922-15.272,5.914c-10.207-0.042-19.147-6.854-21.896-16.684
		L187.45,416.75c-0.269-0.922-0.447-1.868-0.53-2.825l-17.656-163.84c-0.585-5.323-3.801-9.997-8.563-12.447l-21.629-11.211
		c-5.391-2.781-9.662-7.331-12.094-12.888l-26.661-61.793c-4.326-9.941-2.235-21.509,5.297-29.308l10.064-10.417
		c3.583-3.658,5.192-8.813,4.326-13.859l-4.414-27.63c-2.316-13.91,2.107-28.094,11.918-38.223l18.715-19.244
		C154.266,4.72,165.356,0.003,176.945,0h29.662c11.59,0.003,22.679,4.72,30.721,13.065l16.244,16.684L328.61,98.163z"/>
	<path style="fill:#BDC3C7;" d="M283.478,97.103h35.31V220.69c0,9.751-7.904,17.655-17.655,17.655l0,0
		c-9.751,0-17.655-7.904-17.655-17.655V97.103z"/>
	<circle style="fill:#CC4B4C;" cx="301.133" cy="52.966" r="52.966"/>
	<path style="fill:#FB7B76;" d="M283.478,61.793c-4.875,0-8.828-3.952-8.828-8.828c0.016-14.619,11.863-26.467,26.483-26.483
		c4.875,0,8.828,3.952,8.828,8.828s-3.952,8.828-8.828,8.828c-4.873,0.006-8.821,3.955-8.828,8.828
		C292.305,57.841,288.353,61.793,283.478,61.793z"/>
</g>
<g>
</g>
<g>
</g>
<g>
</g>
<g>
</g>
<g>
</g>
<g>
</g>
<g>
</g>
<g>
</g>
<g>
</g>
<g>
</g>
<g>
</g>
<g>
</g>
<g>
</g>
<g>
</g>
<g>
</g>
</svg>
