<?xml version="1.0" encoding="iso-8859-1"?>
<!-- Generator: Adobe Illustrator 19.0.0, SVG Export Plug-In . SVG Version: 6.00 Build 0)  -->
<svg xmlns="http://www.w3.org/2000/svg" xmlns:xlink="http://www.w3.org/1999/xlink" version="1.1" id="Layer_1" x="0px" y="0px" viewBox="0 0 512 512" style="enable-background:new 0 0 512 512;" xml:space="preserve">
<path style="fill:#C8414B;" d="M400,0H112C50.144,0,0,50.144,0,112v288c0,61.856,50.144,112,112,112h288  c61.856,0,112-50.144,112-112V112C512,50.144,461.856,0,400,0z"/>
<rect y="106.63" style="fill:#FFD250;" width="512" height="298.74"/>
<path style="fill:#C8414B;" d="M223.091,256.412l8.255-33.665c0.76-3.1-1.843-6.041-5.347-6.041h-5.815  c-3.504,0-6.108,2.941-5.347,6.041L223.091,256.412z"/>
<rect x="213.35" y="238.76" style="fill:#F5F5F5;" width="19.473" height="75"/>
<rect x="208.49" y="229.94" style="fill:#FAB446;" width="29.21" height="8.823"/>
<g>
	<rect x="189.01" y="256.41" style="fill:#C8414B;" width="48.681" height="8.823"/>
	<polygon style="fill:#C8414B;" points="237.696,291.706 208.487,282.882 208.487,274.059 237.696,282.882  "/>
	<path style="fill:#C8414B;" d="M77.047,256.412l8.255-33.665c0.76-3.1-1.843-6.041-5.347-6.041H74.14   c-3.504,0-6.108,2.941-5.347,6.041L77.047,256.412z"/>
</g>
<path style="fill:#F5F5F5;" d="M111.124,229.941c-5.377,0-9.736,3.95-9.736,8.824v57.353c0,10.721,11.041,30.882,48.682,30.882  s48.682-20.162,48.682-30.882v-57.353c0-4.873-4.359-8.824-9.736-8.824L111.124,229.941L111.124,229.941z"/>
<g>
	<path style="fill:#C8414B;" d="M150.069,274.059h-48.682V239.21c0-5.119,4.15-9.269,9.269-9.269h39.413V274.059z"/>
	<path style="fill:#C8414B;" d="M150.069,274.059h48.682v20.946c0,12.797-10.374,23.172-23.172,23.172h-2.338   c-12.797,0-23.172-10.374-23.172-23.172L150.069,274.059L150.069,274.059z"/>
</g>
<path style="fill:#FAB446;" d="M101.387,274.059h48.682v20.946c0,12.797-10.374,23.172-23.172,23.172h-2.338  c-12.797,0-23.172-10.374-23.172-23.172C101.387,295.005,101.387,274.059,101.387,274.059z"/>
<g>
	<path style="fill:#C8414B;" d="M140.333,313.665v-39.606h-9.736v43.673C134.217,317.065,137.49,315.612,140.333,313.665z"/>
	<path style="fill:#C8414B;" d="M120.86,317.732v-43.673h-9.736v39.606C113.967,315.612,117.239,317.065,120.86,317.732z"/>
</g>
<rect x="111.12" y="256.41" style="fill:#FFB441;" width="29.21" height="8.823"/>
<g>
	<rect x="111.12" y="238.76" style="fill:#FAB446;" width="29.21" height="8.824"/>
	<rect x="115.99" y="244.01" style="fill:#FAB446;" width="19.473" height="15.985"/>
</g>
<rect x="67.31" y="238.76" style="fill:#F5F5F5;" width="19.473" height="75"/>
<g>
	<rect x="62.44" y="309.35" style="fill:#FAB446;" width="29.21" height="8.823"/>
	<rect x="62.44" y="229.94" style="fill:#FAB446;" width="29.21" height="8.823"/>
</g>
<rect x="57.57" y="318.18" style="fill:#5064AA;" width="38.945" height="8.823"/>
<rect x="213.35" y="309.35" style="fill:#FAB446;" width="29.21" height="8.823"/>
<rect x="203.62" y="318.18" style="fill:#5064AA;" width="38.945" height="8.823"/>
<rect x="120.86" y="221.12" style="fill:#FAB446;" width="58.42" height="8.823"/>
<rect x="145.2" y="194.65" style="fill:#FFB441;" width="9.736" height="26.471"/>
<g>
	<path style="fill:#F5F5F5;" d="M140.333,207.882c-8.053,0-14.604-5.937-14.604-13.235s6.551-13.235,14.604-13.235   c8.053,0,14.604,5.937,14.604,13.235S148.386,207.882,140.333,207.882z M140.333,190.235c-2.686,0-4.868,1.978-4.868,4.412   s2.182,4.412,4.868,4.412c2.686,0,4.868-1.978,4.868-4.412C145.201,192.213,143.019,190.235,140.333,190.235z"/>
	<path style="fill:#F5F5F5;" d="M159.805,207.882c-8.053,0-14.604-5.937-14.604-13.235s6.551-13.235,14.604-13.235   c8.053,0,14.604,5.937,14.604,13.235S167.859,207.882,159.805,207.882z M159.805,190.235c-2.686,0-4.868,1.978-4.868,4.412   s2.182,4.412,4.868,4.412c2.686,0,4.868-1.978,4.868-4.412C164.673,192.213,162.491,190.235,159.805,190.235z"/>
	<path style="fill:#F5F5F5;" d="M179.278,216.706c-8.053,0-14.604-5.937-14.604-13.235s6.551-13.235,14.604-13.235   c8.053,0,14.605,5.937,14.605,13.235S187.331,216.706,179.278,216.706z M179.278,199.059c-2.686,0-4.868,1.978-4.868,4.412   s2.182,4.412,4.868,4.412c2.686,0,4.868-1.978,4.868-4.412C184.146,201.036,181.964,199.059,179.278,199.059z"/>
	<path style="fill:#F5F5F5;" d="M120.86,216.706c-8.053,0-14.604-5.937-14.604-13.235s6.551-13.235,14.604-13.235   s14.604,5.937,14.604,13.235S128.913,216.706,120.86,216.706z M120.86,199.059c-2.686,0-4.868,1.978-4.868,4.412   s2.182,4.412,4.868,4.412s4.868-1.978,4.868-4.412C125.728,201.036,123.546,199.059,120.86,199.059z"/>
</g>
<path style="fill:#FAB446;" d="M179.278,291.706v4.412c0,2.433-2.184,4.412-4.868,4.412c-2.684,0-4.868-1.979-4.868-4.412v-4.412  H179.278 M189.014,282.882h-29.209v13.235c0,7.298,6.552,13.235,14.604,13.235c8.053,0,14.605-5.938,14.605-13.235V282.882  L189.014,282.882z"/>
<path style="fill:#FFA0D2;" d="M174.877,265.235h-0.935c-5.119,0-9.269-4.15-9.269-9.269v-7.933c0-5.119,4.15-9.269,9.269-9.269  h0.935c5.119,0,9.269,4.15,9.269,9.269v7.933C184.146,261.086,179.996,265.235,174.877,265.235z"/>
<ellipse style="fill:#5064AA;" cx="150.07" cy="274.06" rx="14.604" ry="13.235"/>
<rect x="145.2" y="177" style="fill:#FAB446;" width="9.736" height="26.471"/>
<path style="fill:#C8414B;" d="M120.86,221.118l-9.736-8.824l5.703-5.169c8.816-7.99,20.774-12.478,33.242-12.478l0,0  c12.468,0,24.426,4.489,33.242,12.478l5.703,5.169l-9.736,8.824H120.86z"/>
<g>
	<ellipse style="fill:#FFD250;" cx="150.07" cy="212.29" rx="4.868" ry="4.412"/>
	<ellipse style="fill:#FFD250;" cx="130.6" cy="212.29" rx="4.868" ry="4.412"/>
	<ellipse style="fill:#FFD250;" cx="169.54" cy="212.29" rx="4.868" ry="4.412"/>
</g>
<g>
	<rect x="62.44" y="256.41" style="fill:#C8414B;" width="48.681" height="8.823"/>
	<polygon style="fill:#C8414B;" points="62.442,291.706 91.651,282.882 91.651,274.059 62.442,282.882  "/>
</g>
<g>
</g>
<g>
</g>
<g>
</g>
<g>
</g>
<g>
</g>
<g>
</g>
<g>
</g>
<g>
</g>
<g>
</g>
<g>
</g>
<g>
</g>
<g>
</g>
<g>
</g>
<g>
</g>
<g>
</g>
</svg>
