<?xml version="1.0" encoding="iso-8859-1"?>
<!-- Generator: Adobe Illustrator 19.0.0, SVG Export Plug-In . SVG Version: 6.00 Build 0)  -->
<svg xmlns="http://www.w3.org/2000/svg" xmlns:xlink="http://www.w3.org/1999/xlink" version="1.1" id="Layer_1" x="0px" y="0px" viewBox="0 0 512 512" style="enable-background:new 0 0 512 512;" xml:space="preserve">
<path style="fill:#FF4B55;" d="M400,0H256v512h144c61.856,0,112-50.144,112-112V112C512,50.144,461.856,0,400,0z"/>
<path style="fill:#F5F5F5;" d="M112,0C50.144,0,0,50.144,0,112v288c0,61.856,50.144,112,112,112h144V0H112z"/>
<path style="fill:#FF4B55;" d="M127.596,39.754v36.052c1.985,0.078,4.2,0.979,6.041,2.82c1.841,1.841,2.743,4.056,2.82,6.041h36.052  v35.93h-36.052c-0.078,1.985-0.979,4.2-2.82,6.041c-1.84,1.841-4.055,2.742-6.041,2.82v36.052h-35.93v-36.052  c-1.985-0.077-4.2-0.979-6.041-2.82c-1.841-1.84-2.742-4.055-2.82-6.041H46.754v-35.93h36.052c0.077-1.985,0.979-4.2,2.82-6.041  c1.841-1.84,4.055-2.742,6.041-2.82V39.754H127.596 M132.088,35.263h-4.491h-35.93h-4.491v4.491V72.27  c-1.715,0.703-3.323,1.778-4.725,3.18c-1.402,1.403-2.478,3.011-3.181,4.726H46.754h-4.491v4.491v35.93v4.491h4.491H79.27  c0.703,1.715,1.779,3.324,3.181,4.726c1.402,1.402,3.01,2.477,4.725,3.18v32.515V170h4.491h35.93h4.491v-4.491v-32.515  c1.715-0.703,3.324-1.779,4.726-3.181c1.402-1.401,2.477-3.01,3.18-4.725h32.516H177v-4.491v-35.93v-4.491h-4.491h-32.515  c-0.703-1.715-1.779-3.323-3.181-4.726c-1.402-1.402-3.01-2.477-4.725-3.18V39.754V35.263L132.088,35.263z"/>
<polygon style="fill:#CDCDCD;" points="172.509,84.667 127.596,84.667 127.596,39.754 91.667,39.754 91.667,84.667 46.754,84.667   46.754,120.596 91.667,120.596 91.667,165.509 127.596,165.509 127.596,120.596 172.509,120.596 "/>
<g>
	<circle style="fill:#B4A08C;" cx="109.63" cy="102.63" r="17.965"/>
	
		<ellipse transform="matrix(-0.7071 -0.7071 0.7071 -0.7071 66.1696 272.7784)" style="fill:#B4A08C;" cx="89.579" cy="122.685" rx="7.989" ry="5.592"/>
	
		<ellipse transform="matrix(0.7071 -0.7071 0.7071 0.7071 -48.7641 127.6348)" style="fill:#B4A08C;" cx="129.687" cy="122.681" rx="7.989" ry="5.592"/>
	
		<ellipse transform="matrix(0.7071 0.7071 -0.7071 0.7071 96.3775 -67.5128)" style="fill:#B4A08C;" cx="129.684" cy="82.581" rx="7.989" ry="5.592"/>
	
		<ellipse transform="matrix(-0.7071 0.7071 -0.7071 -0.7071 211.3129 77.6368)" style="fill:#B4A08C;" cx="89.577" cy="82.583" rx="7.989" ry="5.592"/>
	<path style="fill:#B4A08C;" d="M109.632,127.224c-13.561,0-24.592-11.031-24.592-24.592S96.071,78.04,109.632,78.04   s24.592,11.031,24.592,24.592S123.193,127.224,109.632,127.224z M109.632,80.285c-12.32,0-22.346,10.026-22.346,22.346   s10.026,22.347,22.346,22.347s22.347-10.026,22.347-22.347S121.952,80.285,109.632,80.285z"/>
</g>
<g>
</g>
<g>
</g>
<g>
</g>
<g>
</g>
<g>
</g>
<g>
</g>
<g>
</g>
<g>
</g>
<g>
</g>
<g>
</g>
<g>
</g>
<g>
</g>
<g>
</g>
<g>
</g>
<g>
</g>
</svg>
