<?xml version="1.0" encoding="iso-8859-1"?>
<!-- Generator: Adobe Illustrator 19.0.0, SVG Export Plug-In . SVG Version: 6.00 Build 0)  -->
<svg version="1.1" id="Layer_1" xmlns="http://www.w3.org/2000/svg" xmlns:xlink="http://www.w3.org/1999/xlink" x="0px" y="0px"
	 viewBox="0 0 512 512" style="enable-background:new 0 0 512 512;" xml:space="preserve">
<path style="fill:#FF4B55;" d="M400,0H112C50.144,0,0,50.144,0,112v288c0,61.856,50.144,112,112,112h288
	c61.856,0,112-50.144,112-112V112C512,50.144,461.856,0,400,0z"/>
<polygon style="fill:#F5F5F5;" points="512,211.862 229.517,211.862 229.517,0 141.241,0 141.241,211.862 0,211.862 0,300.138 
	141.241,300.138 141.241,512 229.517,512 229.517,300.138 512,300.138 "/>
<polygon style="fill:#41479B;" points="512,229.517 211.862,229.517 211.862,0 158.897,0 158.897,229.517 0,229.517 0,282.483 
	158.897,282.483 158.897,512 211.862,512 211.862,282.483 512,282.483 "/>
<g>
</g>
<g>
</g>
<g>
</g>
<g>
</g>
<g>
</g>
<g>
</g>
<g>
</g>
<g>
</g>
<g>
</g>
<g>
</g>
<g>
</g>
<g>
</g>
<g>
</g>
<g>
</g>
<g>
</g>
</svg>
