<?xml version="1.0" encoding="iso-8859-1"?>
<!-- Generator: Adobe Illustrator 19.0.0, SVG Export Plug-In . SVG Version: 6.00 Build 0)  -->
<svg xmlns="http://www.w3.org/2000/svg" xmlns:xlink="http://www.w3.org/1999/xlink" version="1.1" id="Layer_1" x="0px" y="0px" viewBox="0 0 512 512" style="enable-background:new 0 0 512 512;" xml:space="preserve">
<g>
	<path style="fill:#F5F5F5;" d="M4.3,81C1.5,90.8,0,101.2,0,112v49.8h512V112c0-10.7-1.5-21.1-4.3-31H4.3z"/>
	<path style="fill:#F5F5F5;" d="M0,400c0,10.7,1.5,21.1,4.3,31h503.3c2.8-9.8,4.3-20.2,4.3-31v-49.8H0V400z"/>
</g>
<g>
	<path style="fill:#FF4B55;" d="M104.2,511.7h303.6c47.6-3.3,87.1-36.4,99.8-80.8H4.3C17.1,475.4,56.5,508.4,104.2,511.7z"/>
	<path style="fill:#FF4B55;" d="M407.8,0.3H104.2C56.6,3.6,17.1,36.7,4.4,81.1h503.3C494.9,36.6,455.5,3.6,407.8,0.3z"/>
</g>
<rect y="161.8" style="fill:#41479B;" width="512" height="188.4"/>
<g>
</g>
<g>
</g>
<g>
</g>
<g>
</g>
<g>
</g>
<g>
</g>
<g>
</g>
<g>
</g>
<g>
</g>
<g>
</g>
<g>
</g>
<g>
</g>
<g>
</g>
<g>
</g>
<g>
</g>
</svg>
