<?xml version="1.0" encoding="iso-8859-1"?>
<!-- Generator: Adobe Illustrator 19.0.0, SVG Export Plug-In . SVG Version: 6.00 Build 0)  -->
<svg xmlns="http://www.w3.org/2000/svg" xmlns:xlink="http://www.w3.org/1999/xlink" version="1.1" id="Layer_1" x="0px" y="0px" viewBox="0 0 512 512" style="enable-background:new 0 0 512 512;" xml:space="preserve">
<path style="fill:#FF4B55;" d="M400,0H112C50.144,0,0,50.144,0,112v288c0,61.856,50.144,112,112,112h288  c61.856,0,112-50.144,112-112V112C512,50.144,461.856,0,400,0z"/>
<path style="fill:#FFE15A;" d="M260.565,146.63l26.164,78.449l82.695,0.641c4.624,0.036,6.541,5.937,2.822,8.684l-66.525,49.125  l24.944,78.845c1.395,4.409-3.625,8.056-7.387,5.367L256,319.654l-67.278,48.088c-3.762,2.689-8.782-0.958-7.387-5.367  l24.944-78.845l-66.525-49.125c-3.72-2.747-1.802-8.648,2.822-8.684l82.695-0.641l26.164-78.449  C252.898,142.243,259.102,142.243,260.565,146.63z"/>
<g>
</g>
<g>
</g>
<g>
</g>
<g>
</g>
<g>
</g>
<g>
</g>
<g>
</g>
<g>
</g>
<g>
</g>
<g>
</g>
<g>
</g>
<g>
</g>
<g>
</g>
<g>
</g>
<g>
</g>
</svg>
