<?xml version="1.0" encoding="UTF-8" standalone="no"?>
<svg
   xmlns:dc="http://purl.org/dc/elements/1.1/"
   xmlns:cc="http://creativecommons.org/ns#"
   xmlns:rdf="http://www.w3.org/1999/02/22-rdf-syntax-ns#"
   xmlns:svg="http://www.w3.org/2000/svg"
   xmlns="http://www.w3.org/2000/svg"
   xmlns:sodipodi="http://sodipodi.sourceforge.net/DTD/sodipodi-0.dtd"
   xmlns:inkscape="http://www.inkscape.org/namespaces/inkscape"
   inkscape:export-ydpi="96"
   inkscape:export-xdpi="96"
   inkscape:export-filename="C:\Users\Jasper\WebstormProjects\shapez.io\res_raw\sprites\buildings\furnace.png"
   sodipodi:docname="furnace.svg"
   inkscape:version="1.0 (4035a4fb49, 2020-05-01)"
   id="svg8"
   version="1.1"
   viewBox="0 0 384 192"
   height="192"
   width="384">
  <defs
     id="defs2" />
  <sodipodi:namedview
     inkscape:window-maximized="1"
     inkscape:window-y="-8"
     inkscape:window-x="-8"
     inkscape:window-height="1017"
     inkscape:window-width="1920"
     inkscape:bbox-paths="true"
     inkscape:bbox-nodes="true"
     inkscape:snap-nodes="false"
     inkscape:object-nodes="false"
     inkscape:snap-bbox-midpoints="true"
     inkscape:snap-grids="true"
     inkscape:guide-bbox="true"
     inkscape:snap-object-midpoints="true"
     inkscape:snap-center="false"
     inkscape:snap-bbox="true"
     scale-x="1"
     inkscape:lockguides="false"
     showguides="false"
     inkscape:pagecheckerboard="true"
     units="px"
     showgrid="false"
     inkscape:document-rotation="0"
     inkscape:current-layer="layer3"
     inkscape:document-units="px"
     inkscape:cy="120.16762"
     inkscape:cx="210.28118"
     inkscape:zoom="2.4601423"
     inkscape:pageshadow="2"
     inkscape:pageopacity="0.0"
     borderopacity="1.0"
     bordercolor="#666666"
     pagecolor="#ffffff"
     id="base">
    <inkscape:grid
       id="grid835"
       type="xygrid" />
    <sodipodi:guide
       id="guide837"
       orientation="1,0"
       position="9,183" />
    <sodipodi:guide
       id="guide839"
       orientation="0,-1"
       position="9,183" />
    <sodipodi:guide
       id="guide841"
       orientation="1,0"
       position="375,183" />
    <sodipodi:guide
       id="guide843"
       orientation="0,-1"
       position="9,9" />
  </sodipodi:namedview>
  <metadata
     id="metadata5">
    <rdf:RDF>
      <cc:Work
         rdf:about="">
        <dc:format>image/svg+xml</dc:format>
        <dc:type
           rdf:resource="http://purl.org/dc/dcmitype/StillImage" />
        <dc:title />
      </cc:Work>
    </rdf:RDF>
  </metadata>
  <g
     sodipodi:insensitive="true"
     style="opacity:0.21"
     inkscape:label="Base Shadow"
     id="layer6"
     inkscape:groupmode="layer">
    <path
       id="rect851-2"
       style="fill:#91949e;fill-opacity:1;stroke:#91949e;stroke-width:6;stroke-linecap:round;stroke-linejoin:round;stroke-miterlimit:4;stroke-dasharray:none;stroke-opacity:1;paint-order:fill markers stroke"
       d="M 359,13 H 288 L 258,29 104,13 H 33 L 13,33 v 134 l 20,20 h 71 l 154,-16 30,16 h 71 c 11.08,0 20,-8.92 20,-20 V 33 c 0,-11.08 -8.92,-20 -20,-20 z"
       sodipodi:nodetypes="sccccccccccssss" />
  </g>
  <g
     sodipodi:insensitive="true"
     id="layer1"
     inkscape:groupmode="layer"
     inkscape:label="Base Shape">
    <path
       sodipodi:nodetypes="sccccccccccssss"
       d="M 355,9 H 284 L 254,25 100,9 H 29 L 9,29 v 134 l 20,20 h 71 l 154,-16 30,16 h 71 c 11.08,0 20,-8.92 20,-20 V 29 C 375,17.92 366.08,9 355,9 Z"
       style="fill:#dee1ea;fill-opacity:1;stroke:#64666e;stroke-width:6;stroke-linecap:round;stroke-linejoin:round;stroke-miterlimit:4;stroke-dasharray:none;paint-order:fill markers stroke"
       id="rect851" />
  </g>
  <g
     style="opacity:0.21"
     inkscape:label="Shadows"
     id="layer4"
     inkscape:groupmode="layer"
     sodipodi:insensitive="true">
    <rect
       transform="scale(-1,1)"
       y="101.49999"
       x="-140.00882"
       height="7.9999995"
       width="128"
       id="rect886-1-3"
       style="fill:#91949e;fill-opacity:1;stroke:none;stroke-width:0;stroke-linecap:butt;stroke-linejoin:miter;stroke-miterlimit:4;stroke-dasharray:none;stroke-opacity:1;paint-order:fill markers stroke" />
    <rect
       transform="scale(-1,1)"
       style="fill:#91949e;fill-opacity:1;stroke:none;stroke-width:0;stroke-linecap:butt;stroke-linejoin:miter;stroke-miterlimit:4;stroke-dasharray:none;stroke-opacity:1;paint-order:fill markers stroke"
       id="rect886-1-3-5"
       width="82.787605"
       height="7.9999995"
       x="-345.10019"
       y="101.5" />
    <path
       sodipodi:type="star"
       style="opacity:1;fill:#91949e;fill-opacity:1;stroke:#91949e;stroke-width:3.46897;stroke-linecap:round;stroke-linejoin:round;stroke-miterlimit:4;stroke-dasharray:none;stroke-opacity:1;paint-order:stroke fill markers"
       id="path884-0-2"
       sodipodi:sides="3"
       sodipodi:cx="72.431137"
       sodipodi:cy="56.622753"
       sodipodi:r1="20.111547"
       sodipodi:r2="10.055773"
       sodipodi:arg1="1.0471976"
       sodipodi:arg2="2.0943951"
       inkscape:flatsided="false"
       inkscape:rounded="0"
       inkscape:randomized="0"
       d="M 82.48691,74.039865 67.403251,65.331308 52.31959,56.622752 l 15.083661,-8.708554 15.083661,-8.708555 -2e-6,17.41711 z"
       inkscape:transform-center-x="-8.0048017"
       transform="matrix(-1.5920806,0,0,1.5789152,468.41639,10.097474)"
       inkscape:transform-center-y="-1.5931903e-06" />
    <path
       style="fill:#91949e;fill-opacity:1;stroke:#91949e;stroke-width:6;stroke-linecap:round;stroke-linejoin:round;stroke-miterlimit:4;stroke-dasharray:none;stroke-opacity:1"
       d="m 179.51818,144.68094 c 0,0 -7.30733,-6.14004 -10.02158,-24.6205 -3.27787,-22.31793 14.65237,-29.292382 27.79734,-42.085269 13.14497,-12.792887 0,-22.844442 0,-22.844442 0,0 21.90832,20.103111 29.5762,36.55111 7.66791,16.447991 13.61128,40.390641 -3.91534,53.183531"
       id="path858-4"
       sodipodi:nodetypes="csscsc" />
  </g>
  <g
     sodipodi:insensitive="true"
     inkscape:label="Fire Symbol"
     id="layer2"
     inkscape:groupmode="layer">
    <g
       transform="translate(-17.960024,11.94922)"
       id="g864">
      <path
         style="fill:#91949e;fill-opacity:1;stroke:#64666e;stroke-width:6;stroke-linecap:round;stroke-linejoin:round;stroke-miterlimit:4;stroke-dasharray:none;stroke-opacity:1"
         d="m 193.4782,128.73172 c 0,0 -7.30733,-6.14004 -10.02158,-24.6205 -3.27787,-22.317925 14.65237,-29.29238 27.79734,-42.085267 13.14497,-12.792887 0,-22.844442 0,-22.844442 0,0 21.90832,20.103111 29.5762,36.55111 7.66791,16.447995 13.61128,40.390639 -3.91534,53.183529"
         id="path858"
         sodipodi:nodetypes="csscsc" />
      <path
         style="fill:none;fill-opacity:1;stroke:#64666e;stroke-width:6;stroke-linecap:round;stroke-linejoin:round;stroke-miterlimit:4;stroke-dasharray:none;stroke-opacity:1"
         d="m 203.46921,120.44373 c 0,0 -5.5888,-24.006215 -0.436,-30.715249 0,0 23.04865,33.565249 16.81586,-10.962333 0,0 7.46878,3.394159 10.48801,19.309244 3.01923,15.915078 -4.25522,25.218338 -4.25522,25.218338"
         id="path860"
         sodipodi:nodetypes="cccsc" />
    </g>
  </g>
  <g
     inkscape:label="Arrows"
     id="layer3"
     inkscape:groupmode="layer">
    <rect
       transform="scale(-1,1)"
       ry="4.1052632"
       rx="6"
       y="89.5"
       x="-134"
       height="13"
       width="125"
       id="rect867"
       style="fill:#64666e;fill-opacity:1;stroke:#64666e;stroke-width:6;stroke-linecap:round;stroke-linejoin:round;stroke-miterlimit:4;stroke-dasharray:none;stroke-opacity:1;paint-order:fill markers stroke" />
    <rect
       transform="scale(-1,1)"
       style="fill:#64666e;fill-opacity:1;stroke:#64666e;stroke-width:6;stroke-linecap:round;stroke-linejoin:round;stroke-miterlimit:4;stroke-dasharray:none;stroke-opacity:1;paint-order:fill markers stroke"
       id="rect867-7"
       width="113.41531"
       height="13"
       x="-363.41531"
       y="89.5"
       rx="5.4439344"
       ry="4.1052632" />
    <path
       inkscape:transform-center-y="-1.5931903e-06"
       transform="matrix(-1.5920806,0,0,1.5789152,464.28482,6.584971)"
       inkscape:transform-center-x="-8.0047997"
       d="M 82.48691,74.039865 C 79.750037,75.619999 69.033987,68.827326 66.297115,67.247191 63.560242,65.667057 52.31959,59.783021 52.31959,56.622752 c 0,-3.160268 11.240652,-9.044303 13.977525,-10.624437 2.736873,-1.580134 13.452924,-8.372807 16.189797,-6.792672 2.736872,1.580134 2.21227,14.256842 2.21227,17.41711 -10e-7,3.160269 0.524601,15.836977 -2.212272,17.417112 z"
       inkscape:randomized="0"
       inkscape:rounded="0.18"
       inkscape:flatsided="false"
       sodipodi:arg2="2.0943951"
       sodipodi:arg1="1.0471976"
       sodipodi:r2="12.268044"
       sodipodi:r1="20.111547"
       sodipodi:cy="56.622753"
       sodipodi:cx="72.431137"
       sodipodi:sides="3"
       id="path884"
       style="fill:#91949e;fill-opacity:1;stroke:#64666e;stroke-width:3.46897;stroke-linecap:round;stroke-linejoin:round;stroke-miterlimit:4;stroke-dasharray:none;stroke-opacity:1;paint-order:fill markers stroke"
       sodipodi:type="star" />
    <rect
       transform="scale(-1,1)"
       y="92.5"
       x="-338.3114"
       height="7"
       width="85.311378"
       id="rect886"
       style="fill:#91949e;fill-opacity:1;stroke:none;stroke-width:0;stroke-linecap:butt;stroke-linejoin:miter;stroke-miterlimit:4;stroke-dasharray:none;stroke-opacity:1;paint-order:fill markers stroke" />
    <rect
       transform="scale(-1,1)"
       style="fill:#91949e;fill-opacity:1;stroke:none;stroke-width:0;stroke-linecap:butt;stroke-linejoin:miter;stroke-miterlimit:4;stroke-dasharray:none;stroke-opacity:1;paint-order:fill markers stroke"
       id="rect886-1"
       width="119"
       height="7"
       x="-131.00002"
       y="92.5" />
  </g>
</svg>
