<?xml version="1.0" encoding="UTF-8" standalone="no"?>
<svg
   xmlns:dc="http://purl.org/dc/elements/1.1/"
   xmlns:cc="http://creativecommons.org/ns#"
   xmlns:rdf="http://www.w3.org/1999/02/22-rdf-syntax-ns#"
   xmlns:svg="http://www.w3.org/2000/svg"
   xmlns="http://www.w3.org/2000/svg"
   xmlns:sodipodi="http://sodipodi.sourceforge.net/DTD/sodipodi-0.dtd"
   xmlns:inkscape="http://www.inkscape.org/namespaces/inkscape"
   width="283.98886mm"
   height="64.166328mm"
   viewBox="0 0 283.98886 64.16633"
   version="1.1"
   id="svg8"
   inkscape:version="1.0.1 (3bc2e813f5, 2020-09-07)"
   sodipodi:docname="modloader-logo.svg">
  <defs
     id="defs2">
    <inkscape:path-effect
       effect="bspline"
       id="path-effect982"
       is_visible="true"
       lpeversion="1"
       weight="33.333333"
       steps="2"
       helper_size="0"
       apply_no_weight="true"
       apply_with_weight="true"
       only_selected="false" />
    <inkscape:path-effect
       effect="bspline"
       id="path-effect974"
       is_visible="true"
       lpeversion="1"
       weight="33.333333"
       steps="2"
       helper_size="0"
       apply_no_weight="true"
       apply_with_weight="true"
       only_selected="false" />
    <inkscape:path-effect
       effect="skeletal"
       id="path-effect865"
       is_visible="true"
       lpeversion="1"
       pattern="M 0,5 C 0,2.24 2.24,0 5,0 7.76,0 10,2.24 10,5 10,7.76 7.76,10 5,10 2.24,10 0,7.76 0,5 Z"
       copytype="single_stretched"
       prop_scale="1"
       scale_y_rel="false"
       spacing="0"
       normal_offset="0"
       tang_offset="0"
       prop_units="false"
       vertical_pattern="false"
       hide_knot="false"
       fuse_tolerance="0" />
    <inkscape:path-effect
       effect="bspline"
       id="path-effect863"
       is_visible="true"
       lpeversion="1"
       weight="33.333333"
       steps="2"
       helper_size="0"
       apply_no_weight="true"
       apply_with_weight="true"
       only_selected="false" />
    <filter
       inkscape:collect="always"
       style="color-interpolation-filters:sRGB"
       id="filter2024"
       x="-4.8000002e-06"
       width="1.0000097"
       y="-4.8000002e-06"
       height="1.0000097">
      <feGaussianBlur
         inkscape:collect="always"
         stdDeviation="0.00012336801"
         id="feGaussianBlur2026" />
    </filter>
  </defs>
  <sodipodi:namedview
     id="base"
     pagecolor="#ff4fff"
     bordercolor="#666666"
     borderopacity="1.0"
     inkscape:pageopacity="0"
     inkscape:pageshadow="2"
     inkscape:zoom="1"
     inkscape:cx="494.96965"
     inkscape:cy="8.7609289"
     inkscape:document-units="mm"
     inkscape:current-layer="layer2"
     inkscape:document-rotation="0"
     showgrid="false"
     fit-margin-top="0"
     fit-margin-left="0"
     fit-margin-right="0"
     fit-margin-bottom="0"
     inkscape:window-width="1920"
     inkscape:window-height="1057"
     inkscape:window-x="1272"
     inkscape:window-y="-8"
     inkscape:window-maximized="1" />
  <metadata
     id="metadata5">
    <rdf:RDF>
      <cc:Work
         rdf:about="">
        <dc:format>image/svg+xml</dc:format>
        <dc:type
           rdf:resource="http://purl.org/dc/dcmitype/StillImage" />
        <dc:title></dc:title>
      </cc:Work>
    </rdf:RDF>
  </metadata>
  <g
     inkscape:groupmode="layer"
     id="layer2"
     inkscape:label="Laag 2"
     transform="translate(0.47342825,0.9763861)"
     style="filter:url(#filter2024)">
    <circle
       style="opacity:1;fill:#ffffff;fill-opacity:0.995984;stroke:#000000;stroke-width:28.9137;stroke-miterlimit:4;stroke-dasharray:none;stroke-opacity:0"
       id="path947"
       cx="-17.426373"
       cy="111.98576"
       r="30.842003"
       transform="translate(48.935309,-81.038094)" />
  </g>
  <g
     inkscape:groupmode="layer"
     id="layer7"
     inkscape:label="rects shadow"
     transform="translate(1.1445012,0.7354023)"
     sodipodi:insensitive="true">
    <rect
       style="opacity:1;fill:#000000;fill-opacity:0.1;stroke:#000000;stroke-width:0.264999;stroke-miterlimit:4;stroke-dasharray:none;stroke-opacity:0"
       id="rect911-0"
       width="21.32811"
       height="21.32811"
       x="32.793968"
       y="10.228345" />
    <rect
       style="opacity:1;fill:#000000;fill-opacity:0.1;stroke:#000000;stroke-width:0.19784;stroke-miterlimit:4;stroke-dasharray:none;stroke-opacity:0"
       id="rect911-8-3"
       width="15.922925"
       height="15.922925"
       x="13.593724"
       y="34.337467" />
  </g>
  <g
     inkscape:groupmode="layer"
     id="layer3"
     inkscape:label="rects"
     transform="translate(0.47342825,0.9763861)"
     sodipodi:insensitive="true">
    <rect
       style="opacity:1;fill:#66a7ff;fill-opacity:1;stroke:#000000;stroke-width:0.264999;stroke-miterlimit:4;stroke-dasharray:none;stroke-opacity:0"
       id="rect911"
       width="21.32811"
       height="21.32811"
       x="-15.999435"
       y="89.437958"
       transform="translate(48.935309,-81.038094)" />
    <rect
       style="opacity:1;fill:#66a7ff;fill-opacity:1;stroke:#000000;stroke-width:0.19784;stroke-miterlimit:4;stroke-dasharray:none;stroke-opacity:0"
       id="rect911-8"
       width="15.922925"
       height="15.922925"
       x="-35.199677"
       y="113.54708"
       transform="translate(48.935309,-81.038094)" />
  </g>
  <g
     inkscape:groupmode="layer"
     id="layer6"
     inkscape:label="circ shadow"
     transform="translate(1.1445012,0.7354023)"
     sodipodi:insensitive="true">
    <path
       style="opacity:1;fill:#000000;fill-opacity:0.1;stroke:#000000;stroke-width:0.0675911;stroke-opacity:0"
       d="m 54.279618,34.44567 c -4.6e-5,0.0459 -0.04769,0.48901 -0.105856,0.9847 -0.910336,7.75656 -5.76273,14.60782 -12.857849,18.15441 -2.453281,1.22631 -5.339094,2.07608 -8.062407,2.37407 l -0.393493,0.0431 V 45.1821 34.36226 h 10.709844 c 8.522297,0 10.709828,0.0171 10.709761,0.0835 z"
       id="path892-1-7" />
    <path
       style="opacity:1;fill:#000000;fill-opacity:0.1;stroke:#000000;stroke-width:0.0672944;stroke-opacity:0"
       d="m 7.9511465,31.401032 c 4.6e-5,-0.0455 0.04771,-0.484489 0.105909,-0.9756 0.910779,-7.68483 5.7655415,-14.472733 12.8641205,-17.986544 2.45448,-1.214971 5.341701,-2.056873 8.066342,-2.35211 l 0.393686,-0.04266 v 10.719794 10.719801 h -10.71507 c -8.526455,0 -10.7150535,-0.0169 -10.7149875,-0.0827 z"
       id="path892-0-4" />
  </g>
  <g
     inkscape:groupmode="layer"
     id="layer4"
     inkscape:label="circ"
     transform="translate(0.47342825,0.9763861)"
     sodipodi:insensitive="true">
    <path
       style="opacity:1;fill:#bfc1c2;fill-opacity:1;stroke:#000000;stroke-width:0.0676149;stroke-opacity:0"
       d="m 5.4624851,113.65519 c -4.59e-5,0.0459 -0.04772,0.48901 -0.1059315,0.9847 -0.910973,7.75656 -5.76676801,14.60782 -12.8668615,18.15441 -2.4550019,1.22631 -5.3428381,2.07608 -8.0680591,2.37407 l -0.393769,0.0431 v -10.81985 -10.81984 h 10.7173516 c 8.5282714,0 10.7173356,0.0171 10.7172695,0.0835 z"
       id="path892-1"
       transform="translate(48.935309,-81.038094)" />
    <path
       style="opacity:1;fill:#bfc1c2;fill-opacity:1;stroke:#000000;stroke-width:0.0672944;stroke-opacity:0"
       d="m 8.2122947,29.712637 c 4.6e-5,-0.0455 0.04771,-0.484489 0.105909,-0.9756 0.910779,-7.68483 5.7655413,-14.472733 12.8641213,-17.986544 2.45448,-1.2149707 5.341701,-2.0568727 8.066342,-2.3521099 l 0.393685,-0.04266 V 19.075517 29.795318 h -10.71507 c -8.526455,0 -10.7150533,-0.0169 -10.7149873,-0.0827 z"
       id="path892-0" />
  </g>
  <g
     inkscape:groupmode="layer"
     id="layer10"
     inkscape:label="text shadow"
     sodipodi:insensitive="true"
     transform="translate(0.28602205,0.1971115)">
    <g
       aria-label="shapez"
       id="text2432-6"
       style="font-style:normal;font-weight:normal;font-size:56.4444px;line-height:0;font-family:sans-serif;letter-spacing:0px;word-spacing:0px;mix-blend-mode:normal;fill:#2f2f2f;fill-opacity:0.2;stroke:none;stroke-width:0.264583"
       transform="translate(0,1.5875)">
      <path
         d="m 83.664345,48.334161 q -3.951108,0 -7.337772,-1.185333 -3.330219,-1.241776 -5.192885,-3.104442 -0.846666,-0.90311 -0.733777,-2.031998 0.169333,-1.185333 1.128888,-1.91911 1.128888,-0.90311 2.201332,-0.733777 1.128888,0.112889 1.919109,0.959555 0.959555,1.072443 3.047998,2.031998 2.144887,0.903111 4.74133,0.903111 3.273775,0 4.967107,-1.072444 1.749776,-1.072444 1.806221,-2.765776 0.05644,-1.693332 -1.636888,-2.935108 -1.636887,-1.241777 -6.039551,-2.031999 -5.700884,-1.128888 -8.297327,-3.386664 -2.539998,-2.257776 -2.539998,-5.531551 0,-2.878665 1.693332,-4.74133 1.693332,-1.919109 4.346219,-2.82222 2.652887,-0.959555 5.531551,-0.959555 3.725331,0 6.603995,1.185333 2.878665,1.185332 4.571997,3.273775 0.790221,0.90311 0.733777,1.91911 -0.05644,0.959554 -0.959555,1.636887 -0.90311,0.620889 -2.144887,0.395111 -1.241777,-0.225778 -2.088443,-1.015999 -1.41111,-1.354666 -3.047997,-1.862665 -1.636888,-0.508 -3.781775,-0.508 -2.483554,0 -4.23333,0.846666 -1.693332,0.846666 -1.693332,2.483554 0,1.015999 0.507999,1.862665 0.564444,0.790221 2.144887,1.467554 1.580444,0.620889 4.628441,1.241777 4.23333,0.846666 6.66044,2.144887 2.483553,1.298222 3.555997,3.047998 1.072443,1.693332 1.072443,3.951108 0,2.596442 -1.41111,4.684885 -1.354665,2.088443 -4.063996,3.33022 -2.652887,1.241777 -6.66044,1.241777 z"
         style="font-style:normal;font-variant:normal;font-weight:bold;font-stretch:normal;font-size:56.4444px;font-family:Comfortaa;-inkscape-font-specification:'Comfortaa Bold';fill:#2f2f2f;fill-opacity:0.2;stroke-width:0.264583"
         id="path2434-5" />
      <path
         d="m 123.86679,48.164828 q -1.24178,0 -2.08844,-0.790222 -0.79022,-0.846666 -0.79022,-2.088443 V 31.400841 q 0,-3.217331 -1.18534,-5.24933 -1.18533,-2.031998 -3.21733,-2.991553 -1.97555,-1.015999 -4.57199,-1.015999 -2.37067,0 -4.28978,0.959555 -1.91911,0.959554 -3.04799,2.596442 -1.12889,1.580443 -1.12889,3.668886 h -3.555997 q 0,-3.555997 1.693327,-6.321773 1.74978,-2.82222 4.74133,-4.459107 2.99156,-1.636888 6.71689,-1.636888 3.89466,0 6.94266,1.693332 3.10444,1.636888 4.85422,4.854218 1.80622,3.217331 1.80622,7.902217 v 13.885322 q 0,1.241777 -0.84667,2.088443 -0.79022,0.790222 -2.032,0.790222 z m -23.19865,0 q -1.241764,0 -2.088431,-0.790222 -0.790214,-0.846666 -0.790214,-2.088443 V 20.11196 q 0,-1.298221 0.790214,-2.088442 0.846667,-0.790222 2.088431,-0.790222 1.29822,0 2.08845,0.790222 0.79022,0.790221 0.79022,2.088442 v 25.174203 q 0,1.241777 -0.79022,2.088443 -0.79023,0.790222 -2.08845,0.790222 z m 0,-11.288881 q -1.241764,0 -2.088431,-0.790221 -0.790214,-0.846666 -0.790214,-2.088443 V 6.9039706 q 0,-1.2982212 0.790214,-2.0884428 0.846667,-0.7902216 2.088431,-0.7902216 1.29822,0 2.08845,0.7902216 0.79022,0.7902216 0.79022,2.0884428 V 33.997283 q 0,1.241777 -0.79022,2.088443 -0.79023,0.790221 -2.08845,0.790221 z"
         style="font-style:normal;font-variant:normal;font-weight:bold;font-stretch:normal;font-size:56.4444px;font-family:Comfortaa;-inkscape-font-specification:'Comfortaa Bold';fill:#2f2f2f;fill-opacity:0.2;stroke-width:0.264583"
         id="path2436-2" />
      <path
         d="m 143.38938,48.334161 q -4.12044,0 -7.39422,-2.031999 -3.27377,-2.088442 -5.19288,-5.587995 -1.86267,-3.555998 -1.86267,-8.015105 0,-4.459108 2.032,-8.015105 2.08844,-3.555997 5.58799,-5.587996 3.556,-2.088443 7.95867,-2.088443 4.40266,0 7.90221,2.088443 3.49955,2.031999 5.53155,5.587996 2.08845,3.555997 2.08845,8.015105 h -2.20134 q 0,4.459107 -1.91911,8.015105 -1.86266,3.499553 -5.13644,5.587995 -3.27377,2.031999 -7.39421,2.031999 z m 1.12889,-5.079996 q 2.87866,0 5.13644,-1.354666 2.25777,-1.41111 3.55599,-3.781775 1.29822,-2.427109 1.29822,-5.418662 0,-3.047998 -1.29822,-5.418663 -1.29822,-2.427109 -3.55599,-3.781775 -2.25778,-1.41111 -5.13644,-1.41111 -2.82223,0 -5.13645,1.41111 -2.25777,1.354666 -3.61244,3.781775 -1.29822,2.370665 -1.29822,5.418663 0,2.991553 1.29822,5.418662 1.35467,2.370665 3.61244,3.781775 2.31422,1.354666 5.13645,1.354666 z m 12.64354,4.910663 q -1.24178,0 -2.08844,-0.790222 -0.79022,-0.846666 -0.79022,-2.088443 V 36.65017 l 1.07244,-5.983107 4.68489,2.031999 v 12.587101 q 0,1.241777 -0.84667,2.088443 -0.79022,0.790222 -2.032,0.790222 z"
         style="font-style:normal;font-variant:normal;font-weight:bold;font-stretch:normal;font-size:56.4444px;font-family:Comfortaa;-inkscape-font-specification:'Comfortaa Bold';fill:#2f2f2f;fill-opacity:0.2;stroke-width:0.264583"
         id="path2438-3" />
      <path
         d="m 166.20695,60.787206 q -1.24178,0 -2.08844,-0.846666 -0.79023,-0.790222 -0.79023,-2.031998 V 32.169895 q 0.0564,-4.459108 2.08845,-8.015105 2.03199,-3.555997 5.53155,-5.587996 3.49955,-2.088443 7.90221,-2.088443 4.45911,0 7.95866,2.088443 3.49956,2.031999 5.53156,5.587996 2.08844,3.555997 2.08844,8.015105 0,4.459107 -1.91911,8.015105 -1.86267,3.499553 -5.13644,5.587995 -3.27378,2.031999 -7.39422,2.031999 -3.33022,0 -6.15244,-1.354666 -2.76577,-1.41111 -4.74133,-3.781775 v 15.239989 q 0,1.241776 -0.79022,2.031998 -0.79022,0.846666 -2.08844,0.846666 z m 12.64354,-18.062208 q 2.87867,0 5.13644,-1.354666 2.25778,-1.41111 3.556,-3.781775 1.35467,-2.427109 1.35467,-5.418662 0,-3.047998 -1.35467,-5.418663 -1.29822,-2.427109 -3.556,-3.781775 -2.25777,-1.41111 -5.13644,-1.41111 -2.82222,0 -5.13644,1.41111 -2.25777,1.354666 -3.55599,3.781775 -1.29823,2.370665 -1.29823,5.418663 0,2.991553 1.29823,5.418662 1.29822,2.370665 3.55599,3.781775 2.31422,1.354666 5.13644,1.354666 z"
         style="font-style:normal;font-variant:normal;font-weight:bold;font-stretch:normal;font-size:56.4444px;font-family:Comfortaa;-inkscape-font-specification:'Comfortaa Bold';fill:#2f2f2f;fill-opacity:0.2;stroke-width:0.264583"
         id="path2440-6" />
      <path
         d="m 211.69398,48.334161 q -4.68488,0 -8.35377,-1.975554 -3.61244,-2.031999 -5.70088,-5.531552 -2.032,-3.555997 -2.032,-8.127993 0,-4.628441 1.91911,-8.127994 1.97555,-3.555997 5.41866,-5.531551 3.44311,-2.031999 7.90222,-2.031999 4.40266,0 7.56355,1.975554 3.16088,1.91911 4.79777,5.362218 1.69333,3.386664 1.69333,7.845772 0,1.072444 -0.73377,1.806221 -0.73378,0.677333 -1.86267,0.677333 h -22.74709 v -4.515552 h 22.57776 l -2.31422,1.580443 q -0.0565,-2.82222 -1.12889,-5.023552 -1.07244,-2.257776 -3.048,-3.555997 -1.97555,-1.298221 -4.79777,-1.298221 -3.21733,0 -5.53155,1.41111 -2.25778,1.41111 -3.44311,3.894663 -1.18533,2.42711 -1.18533,5.531552 0,3.104442 1.41111,5.531551 1.41111,2.427109 3.89466,3.838219 2.48355,1.41111 5.70088,1.41111 1.74978,0 3.556,-0.620888 1.86267,-0.677333 2.99155,-1.523999 0.84667,-0.620888 1.80622,-0.620888 1.016,-0.05645 1.74978,0.564444 0.95956,0.846666 1.016,1.862665 0.0564,1.015999 -0.90311,1.749776 -1.91911,1.523999 -4.79777,2.483554 -2.82222,0.959555 -5.41867,0.959555 z"
         style="font-style:normal;font-variant:normal;font-weight:bold;font-stretch:normal;font-size:56.4444px;font-family:Comfortaa;-inkscape-font-specification:'Comfortaa Bold';fill:#2f2f2f;fill-opacity:0.2;stroke-width:0.264583"
         id="path2442-9" />
      <path
         d="m 229.88306,47.03594 -3.83822,-3.386664 19.1911,-25.343536 3.78177,3.386664 z m -1.69333,1.072443 q -2.65289,0 -2.65289,-2.652887 0,-2.652886 2.65289,-2.652886 h 19.24754 q 2.65289,0 2.65289,2.652886 0,2.652887 -2.65289,2.652887 z M 227.62529,22.53907 q -2.65289,0 -2.65289,-2.652887 0,-2.652887 2.65289,-2.652887 h 19.24754 q 2.65288,0 2.65288,2.652887 0,2.652887 -2.65288,2.652887 z"
         style="font-style:normal;font-variant:normal;font-weight:bold;font-stretch:normal;font-size:56.4444px;font-family:Comfortaa;-inkscape-font-specification:'Comfortaa Bold';fill:#2f2f2f;fill-opacity:0.2;stroke-width:0.264583"
         id="path2444-1" />
    </g>
    <g
       aria-label="IO"
       id="text2449-6"
       style="font-style:normal;font-weight:normal;font-size:28.2222px;line-height:1.25;font-family:sans-serif;letter-spacing:0px;word-spacing:0px;fill:#2f2f2f;fill-opacity:0.2;stroke:none;stroke-width:0.264583"
       transform="translate(0.18708867,1.0583333)">
      <path
         d="m 256.2031,38.893753 q -0.47978,0 -0.79022,-0.310444 -0.31045,-0.310444 -0.31045,-0.790222 V 17.95288 q 0,-0.479777 0.31045,-0.790221 0.31044,-0.310444 0.79022,-0.310444 0.47978,0 0.79022,0.310444 0.31044,0.310444 0.31044,0.790221 v 19.840207 q 0,0.479778 -0.31044,0.790222 -0.31044,0.310444 -0.79022,0.310444 z"
         style="font-style:normal;font-variant:normal;font-weight:normal;font-stretch:normal;font-size:28.2222px;font-family:Comfortaa;-inkscape-font-specification:Comfortaa;fill:#2f2f2f;fill-opacity:0.2;stroke-width:0.264583"
         id="path2451-4" />
      <path
         d="m 271.01974,39.175975 q -2.45534,0 -4.51556,-0.846666 -2.06022,-0.846666 -3.58422,-2.370665 -1.49577,-1.523999 -2.34244,-3.584219 -0.81844,-2.060221 -0.81844,-4.515552 0,-2.42711 0.81844,-4.48733 0.84667,-2.060221 2.34244,-3.58422 1.524,-1.523998 3.58422,-2.370664 2.06022,-0.846666 4.51556,-0.846666 2.4271,0 4.48733,0.846666 2.06022,0.846666 3.58421,2.370664 1.524,1.523999 2.34245,3.58422 0.84666,2.06022 0.84666,4.48733 0,2.455331 -0.84666,4.515552 -0.81845,2.06022 -2.34245,3.584219 -1.52399,1.523999 -3.58421,2.370665 -2.06023,0.846666 -4.48733,0.846666 z m 0,-2.088443 q 1.94733,0 3.61244,-0.677333 1.66511,-0.705555 2.87866,-1.947331 1.24178,-1.269999 1.91911,-2.935109 0.67733,-1.693332 0.67733,-3.668886 0,-1.947332 -0.67733,-3.612442 -0.67733,-1.693332 -1.91911,-2.935109 -1.21355,-1.269999 -2.87866,-1.947332 -1.66511,-0.705555 -3.61244,-0.705555 -1.97556,0 -3.64067,0.705555 -1.66511,0.677333 -2.90689,1.947332 -1.21355,1.241777 -1.89088,2.935109 -0.67734,1.66511 -0.67734,3.612442 0,1.975554 0.67734,3.668886 0.67733,1.66511 1.89088,2.935109 1.24178,1.241776 2.90689,1.947331 1.66511,0.677333 3.64067,0.677333 z"
         style="font-style:normal;font-variant:normal;font-weight:normal;font-stretch:normal;font-size:28.2222px;font-family:Comfortaa;-inkscape-font-specification:Comfortaa;fill:#2f2f2f;fill-opacity:0.2;stroke-width:0.264583"
         id="path2453-0" />
    </g>
  </g>
  <g
     inkscape:groupmode="layer"
     id="layer9"
     inkscape:label="text"
     transform="translate(0.28602205,0.1971115)"
     sodipodi:insensitive="true">
    <g
       aria-label="shapez"
       id="text2432"
       style="font-style:normal;font-weight:normal;font-size:56.4444px;line-height:0;font-family:sans-serif;letter-spacing:0px;word-spacing:0px;fill:#000000;fill-opacity:1;stroke:none;stroke-width:0.264583">
      <path
         d="m 83.664345,48.334161 q -3.951108,0 -7.337772,-1.185333 -3.330219,-1.241776 -5.192885,-3.104442 -0.846666,-0.90311 -0.733777,-2.031998 0.169333,-1.185333 1.128888,-1.91911 1.128888,-0.90311 2.201332,-0.733777 1.128888,0.112889 1.919109,0.959555 0.959555,1.072443 3.047998,2.031998 2.144887,0.903111 4.74133,0.903111 3.273775,0 4.967107,-1.072444 1.749776,-1.072444 1.806221,-2.765776 0.05644,-1.693332 -1.636888,-2.935108 -1.636887,-1.241777 -6.039551,-2.031999 -5.700884,-1.128888 -8.297327,-3.386664 -2.539998,-2.257776 -2.539998,-5.531551 0,-2.878665 1.693332,-4.74133 1.693332,-1.919109 4.346219,-2.82222 2.652887,-0.959555 5.531551,-0.959555 3.725331,0 6.603995,1.185333 2.878665,1.185332 4.571997,3.273775 0.790221,0.90311 0.733777,1.91911 -0.05644,0.959554 -0.959555,1.636887 -0.90311,0.620889 -2.144887,0.395111 -1.241777,-0.225778 -2.088443,-1.015999 -1.41111,-1.354666 -3.047997,-1.862665 -1.636888,-0.508 -3.781775,-0.508 -2.483554,0 -4.23333,0.846666 -1.693332,0.846666 -1.693332,2.483554 0,1.015999 0.507999,1.862665 0.564444,0.790221 2.144887,1.467554 1.580444,0.620889 4.628441,1.241777 4.23333,0.846666 6.66044,2.144887 2.483553,1.298222 3.555997,3.047998 1.072443,1.693332 1.072443,3.951108 0,2.596442 -1.41111,4.684885 -1.354665,2.088443 -4.063996,3.33022 -2.652887,1.241777 -6.66044,1.241777 z"
         style="font-style:normal;font-variant:normal;font-weight:bold;font-stretch:normal;font-size:56.4444px;font-family:Comfortaa;-inkscape-font-specification:'Comfortaa Bold';fill:#ffffff;stroke-width:0.264583"
         id="path2434" />
      <path
         d="m 123.86679,48.164828 q -1.24178,0 -2.08844,-0.790222 -0.79022,-0.846666 -0.79022,-2.088443 V 31.400841 q 0,-3.217331 -1.18534,-5.24933 -1.18533,-2.031998 -3.21733,-2.991553 -1.97555,-1.015999 -4.57199,-1.015999 -2.37067,0 -4.28978,0.959555 -1.91911,0.959554 -3.04799,2.596442 -1.12889,1.580443 -1.12889,3.668886 h -3.555997 q 0,-3.555997 1.693327,-6.321773 1.74978,-2.82222 4.74133,-4.459107 2.99156,-1.636888 6.71689,-1.636888 3.89466,0 6.94266,1.693332 3.10444,1.636888 4.85422,4.854218 1.80622,3.217331 1.80622,7.902217 v 13.885322 q 0,1.241777 -0.84667,2.088443 -0.79022,0.790222 -2.032,0.790222 z m -23.19865,0 q -1.241764,0 -2.088431,-0.790222 -0.790214,-0.846666 -0.790214,-2.088443 V 20.11196 q 0,-1.298221 0.790214,-2.088442 0.846667,-0.790222 2.088431,-0.790222 1.29822,0 2.08845,0.790222 0.79022,0.790221 0.79022,2.088442 v 25.174203 q 0,1.241777 -0.79022,2.088443 -0.79023,0.790222 -2.08845,0.790222 z m 0,-11.288881 q -1.241764,0 -2.088431,-0.790221 -0.790214,-0.846666 -0.790214,-2.088443 V 6.9039706 q 0,-1.2982212 0.790214,-2.0884428 0.846667,-0.7902216 2.088431,-0.7902216 1.29822,0 2.08845,0.7902216 0.79022,0.7902216 0.79022,2.0884428 V 33.997283 q 0,1.241777 -0.79022,2.088443 -0.79023,0.790221 -2.08845,0.790221 z"
         style="font-style:normal;font-variant:normal;font-weight:bold;font-stretch:normal;font-size:56.4444px;font-family:Comfortaa;-inkscape-font-specification:'Comfortaa Bold';fill:#ffffff;stroke-width:0.264583"
         id="path2436" />
      <path
         d="m 143.38938,48.334161 q -4.12044,0 -7.39422,-2.031999 -3.27377,-2.088442 -5.19288,-5.587995 -1.86267,-3.555998 -1.86267,-8.015105 0,-4.459108 2.032,-8.015105 2.08844,-3.555997 5.58799,-5.587996 3.556,-2.088443 7.95867,-2.088443 4.40266,0 7.90221,2.088443 3.49955,2.031999 5.53155,5.587996 2.08845,3.555997 2.08845,8.015105 h -2.20134 q 0,4.459107 -1.91911,8.015105 -1.86266,3.499553 -5.13644,5.587995 -3.27377,2.031999 -7.39421,2.031999 z m 1.12889,-5.079996 q 2.87866,0 5.13644,-1.354666 2.25777,-1.41111 3.55599,-3.781775 1.29822,-2.427109 1.29822,-5.418662 0,-3.047998 -1.29822,-5.418663 -1.29822,-2.427109 -3.55599,-3.781775 -2.25778,-1.41111 -5.13644,-1.41111 -2.82223,0 -5.13645,1.41111 -2.25777,1.354666 -3.61244,3.781775 -1.29822,2.370665 -1.29822,5.418663 0,2.991553 1.29822,5.418662 1.35467,2.370665 3.61244,3.781775 2.31422,1.354666 5.13645,1.354666 z m 12.64354,4.910663 q -1.24178,0 -2.08844,-0.790222 -0.79022,-0.846666 -0.79022,-2.088443 V 36.65017 l 1.07244,-5.983107 4.68489,2.031999 v 12.587101 q 0,1.241777 -0.84667,2.088443 -0.79022,0.790222 -2.032,0.790222 z"
         style="font-style:normal;font-variant:normal;font-weight:bold;font-stretch:normal;font-size:56.4444px;font-family:Comfortaa;-inkscape-font-specification:'Comfortaa Bold';fill:#ffffff;stroke-width:0.264583"
         id="path2438" />
      <path
         d="m 166.20695,60.787206 q -1.24178,0 -2.08844,-0.846666 -0.79023,-0.790222 -0.79023,-2.031998 V 32.169895 q 0.0564,-4.459108 2.08845,-8.015105 2.03199,-3.555997 5.53155,-5.587996 3.49955,-2.088443 7.90221,-2.088443 4.45911,0 7.95866,2.088443 3.49956,2.031999 5.53156,5.587996 2.08844,3.555997 2.08844,8.015105 0,4.459107 -1.91911,8.015105 -1.86267,3.499553 -5.13644,5.587995 -3.27378,2.031999 -7.39422,2.031999 -3.33022,0 -6.15244,-1.354666 -2.76577,-1.41111 -4.74133,-3.781775 v 15.239989 q 0,1.241776 -0.79022,2.031998 -0.79022,0.846666 -2.08844,0.846666 z m 12.64354,-18.062208 q 2.87867,0 5.13644,-1.354666 2.25778,-1.41111 3.556,-3.781775 1.35467,-2.427109 1.35467,-5.418662 0,-3.047998 -1.35467,-5.418663 -1.29822,-2.427109 -3.556,-3.781775 -2.25777,-1.41111 -5.13644,-1.41111 -2.82222,0 -5.13644,1.41111 -2.25777,1.354666 -3.55599,3.781775 -1.29823,2.370665 -1.29823,5.418663 0,2.991553 1.29823,5.418662 1.29822,2.370665 3.55599,3.781775 2.31422,1.354666 5.13644,1.354666 z"
         style="font-style:normal;font-variant:normal;font-weight:bold;font-stretch:normal;font-size:56.4444px;font-family:Comfortaa;-inkscape-font-specification:'Comfortaa Bold';fill:#ffffff;stroke-width:0.264583"
         id="path2440" />
      <path
         d="m 211.69398,48.334161 q -4.68488,0 -8.35377,-1.975554 -3.61244,-2.031999 -5.70088,-5.531552 -2.032,-3.555997 -2.032,-8.127993 0,-4.628441 1.91911,-8.127994 1.97555,-3.555997 5.41866,-5.531551 3.44311,-2.031999 7.90222,-2.031999 4.40266,0 7.56355,1.975554 3.16088,1.91911 4.79777,5.362218 1.69333,3.386664 1.69333,7.845772 0,1.072444 -0.73377,1.806221 -0.73378,0.677333 -1.86267,0.677333 h -22.74709 v -4.515552 h 22.57776 l -2.31422,1.580443 q -0.0565,-2.82222 -1.12889,-5.023552 -1.07244,-2.257776 -3.048,-3.555997 -1.97555,-1.298221 -4.79777,-1.298221 -3.21733,0 -5.53155,1.41111 -2.25778,1.41111 -3.44311,3.894663 -1.18533,2.42711 -1.18533,5.531552 0,3.104442 1.41111,5.531551 1.41111,2.427109 3.89466,3.838219 2.48355,1.41111 5.70088,1.41111 1.74978,0 3.556,-0.620888 1.86267,-0.677333 2.99155,-1.523999 0.84667,-0.620888 1.80622,-0.620888 1.016,-0.05645 1.74978,0.564444 0.95956,0.846666 1.016,1.862665 0.0564,1.015999 -0.90311,1.749776 -1.91911,1.523999 -4.79777,2.483554 -2.82222,0.959555 -5.41867,0.959555 z"
         style="font-style:normal;font-variant:normal;font-weight:bold;font-stretch:normal;font-size:56.4444px;font-family:Comfortaa;-inkscape-font-specification:'Comfortaa Bold';fill:#ffffff;stroke-width:0.264583"
         id="path2442" />
      <path
         d="m 229.88306,47.03594 -3.83822,-3.386664 19.1911,-25.343536 3.78177,3.386664 z m -1.69333,1.072443 q -2.65289,0 -2.65289,-2.652887 0,-2.652886 2.65289,-2.652886 h 19.24754 q 2.65289,0 2.65289,2.652886 0,2.652887 -2.65289,2.652887 z M 227.62529,22.53907 q -2.65289,0 -2.65289,-2.652887 0,-2.652887 2.65289,-2.652887 h 19.24754 q 2.65288,0 2.65288,2.652887 0,2.652887 -2.65288,2.652887 z"
         style="font-style:normal;font-variant:normal;font-weight:bold;font-stretch:normal;font-size:56.4444px;font-family:Comfortaa;-inkscape-font-specification:'Comfortaa Bold';fill:#ffffff;stroke-width:0.264583"
         id="path2444" />
    </g>
    <g
       aria-label="IO"
       id="text2449"
       style="font-style:normal;font-weight:normal;font-size:28.2222px;line-height:1.25;font-family:sans-serif;letter-spacing:0px;word-spacing:0px;fill:#ffffff;fill-opacity:0.53;stroke:none;stroke-width:0.264583">
      <path
         d="m 256.2031,38.893753 q -0.47978,0 -0.79022,-0.310444 -0.31045,-0.310444 -0.31045,-0.790222 V 17.95288 q 0,-0.479777 0.31045,-0.790221 0.31044,-0.310444 0.79022,-0.310444 0.47978,0 0.79022,0.310444 0.31044,0.310444 0.31044,0.790221 v 19.840207 q 0,0.479778 -0.31044,0.790222 -0.31044,0.310444 -0.79022,0.310444 z"
         style="font-style:normal;font-variant:normal;font-weight:normal;font-stretch:normal;font-size:28.2222px;font-family:Comfortaa;-inkscape-font-specification:Comfortaa;fill:#ffffff;fill-opacity:0.53;stroke-width:0.264583"
         id="path2451" />
      <path
         d="m 271.01974,39.175975 q -2.45534,0 -4.51556,-0.846666 -2.06022,-0.846666 -3.58422,-2.370665 -1.49577,-1.523999 -2.34244,-3.584219 -0.81844,-2.060221 -0.81844,-4.515552 0,-2.42711 0.81844,-4.48733 0.84667,-2.060221 2.34244,-3.58422 1.524,-1.523998 3.58422,-2.370664 2.06022,-0.846666 4.51556,-0.846666 2.4271,0 4.48733,0.846666 2.06022,0.846666 3.58421,2.370664 1.524,1.523999 2.34245,3.58422 0.84666,2.06022 0.84666,4.48733 0,2.455331 -0.84666,4.515552 -0.81845,2.06022 -2.34245,3.584219 -1.52399,1.523999 -3.58421,2.370665 -2.06023,0.846666 -4.48733,0.846666 z m 0,-2.088443 q 1.94733,0 3.61244,-0.677333 1.66511,-0.705555 2.87866,-1.947331 1.24178,-1.269999 1.91911,-2.935109 0.67733,-1.693332 0.67733,-3.668886 0,-1.947332 -0.67733,-3.612442 -0.67733,-1.693332 -1.91911,-2.935109 -1.21355,-1.269999 -2.87866,-1.947332 -1.66511,-0.705555 -3.61244,-0.705555 -1.97556,0 -3.64067,0.705555 -1.66511,0.677333 -2.90689,1.947332 -1.21355,1.241777 -1.89088,2.935109 -0.67734,1.66511 -0.67734,3.612442 0,1.975554 0.67734,3.668886 0.67733,1.66511 1.89088,2.935109 1.24178,1.241776 2.90689,1.947331 1.66511,0.677333 3.64067,0.677333 z"
         style="font-style:normal;font-variant:normal;font-weight:normal;font-stretch:normal;font-size:28.2222px;font-family:Comfortaa;-inkscape-font-specification:Comfortaa;fill:#ffffff;fill-opacity:0.53;stroke-width:0.264583"
         id="path2453" />
    </g>
  </g>
</svg>
