<svg width="740" height="228" fill="none" xmlns="http://www.w3.org/2000/svg"><path d="M717.137 0H22.858C10.234 0 0 10.234 0 22.858v181.976c0 12.624 10.234 22.858 22.858 22.858h694.279c12.624 0 22.858-10.234 22.858-22.858V22.858C739.995 10.234 729.761 0 717.137 0z" fill="#222"/><path d="M68.069 33.433c-7.9 4.687-23.452 22.556-23.6 27.243v7.76c0 9.834 9.192 18.477 17.537 18.477 10.02 0 18.369-8.307 18.369-18.164 0 9.857 8.065 18.164 18.088 18.164 10.02 0 17.825-8.307 17.825-18.164 0 9.857 8.575 18.164 18.595 18.164h.181c10.023 0 18.595-8.307 18.595-18.164 0 9.857 7.809 18.164 17.828 18.164 10.023 0 18.085-8.307 18.085-18.164 0 9.857 8.353 18.164 18.372 18.164 8.345 0 17.537-8.643 17.537-18.481v-7.756c-.147-4.687-15.704-22.556-23.599-27.243-24.54-.861-41.552-1.013-66.909-1.009-25.352 0-59.924.397-66.908 1.01h.004zm48.094 48.847a20.681 20.681 0 0 1-3.526 4.543 20.955 20.955 0 0 1-14.688 5.99 21.014 21.014 0 0 1-14.713-5.994 19.644 19.644 0 0 1-3.368-4.452l-.003.003c-.953 1.675-2.283 3.11-3.655 4.456a21.025 21.025 0 0 1-14.718 5.987 6.346 6.346 0 0 1-1.984-.39 304.61 304.61 0 0 0-1.266 22.255v.033l-.045 8.803c.15 17.601-1.743 57.048 7.759 66.742 14.729 3.432 41.828 4.997 69.014 5.008h.007c27.186-.011 54.289-1.576 69.014-5.008 9.505-9.694 7.608-49.141 7.763-66.746l-.046-8.799v-.037c-.15-7.43-.572-14.852-1.266-22.25a6.334 6.334 0 0 1-1.984.39 21.025 21.025 0 0 1-14.717-5.991c-1.372-1.346-2.703-2.778-3.655-4.453h-.004a19.634 19.634 0 0 1-3.367 4.445 21.011 21.011 0 0 1-14.714 5.994 20.958 20.958 0 0 1-14.687-5.99 20.681 20.681 0 0 1-3.526-4.543 20.658 20.658 0 0 1-3.493 4.543 21.014 21.014 0 0 1-14.717 5.994 15.857 15.857 0 0 1-.597-.015h-.008c-.196 0-.396.015-.597.015a21.014 21.014 0 0 1-14.717-5.994 20.643 20.643 0 0 1-3.496-4.54zm-15.114 19.54v.011h.011c5.983.011 11.301 0 17.888 7.189 5.324-.55 10.673-.819 16.025-.805a152.6 152.6 0 0 1 16.025.805c6.592-7.189 11.906-7.181 17.893-7.189h.011v-.008c2.827 0 14.135 0 22.019 22.137l8.466 30.368c6.274 22.59-2.01 23.142-12.34 23.165-15.322-.571-23.803-11.698-23.803-22.825-8.481 1.391-18.376 2.087-28.271 2.087-9.894 0-19.789-.696-28.27-2.087 0 11.127-8.481 22.254-23.803 22.825-10.33-.023-18.61-.575-12.337-23.169l8.466-30.364c7.884-22.137 19.193-22.137 22.02-22.137v-.003zm33.924 17.4c-.015.019-16.131 14.816-19.026 20.081l10.553-.423v9.203c0 .431 4.233.253 8.473.056 4.241.197 8.478.375 8.478-.056v-9.203l10.552.423c-2.899-5.261-19.026-20.077-19.026-20.077l-.004-.004zm151.717 70.745v-73.643h24.846v73.643H286.69zm12.574-79.634c-4.192 0-7.436-1.047-9.732-3.141-2.195-2.096-3.292-4.89-3.292-8.383 0-3.293 1.097-6.087 3.292-8.383 2.296-2.292 5.538-3.439 9.729-3.439 4.192 0 7.386 1.147 9.581 3.44 2.295 2.292 3.443 5.087 3.443 8.382 0 3.493-1.147 6.287-3.44 8.383-2.197 2.094-5.39 3.141-9.581 3.141zm49.349 81.131c-7.186 0-12.626-1.896-16.32-5.688-3.59-3.891-5.385-9.279-5.385-16.165v-34.877h-9.88v-18.414h9.88v-17.96h24.846v17.964h16.169v18.406h-16.169v31.286c0 2.296.448 3.942 1.345 4.94.998.9 2.495 1.349 4.491 1.349 2.696 0 5.64-1.198 8.832-3.594l5.688 16.316c-2.892 1.998-6.185 3.595-9.879 4.789-3.692 1.101-8.231 1.652-13.618 1.652v-.004zm61.115 0c-11.377 0-20.358-3.243-26.944-9.729-6.486-6.485-9.729-15.915-9.729-28.289 0-8.983 1.846-16.517 5.537-22.602 3.792-6.289 8.534-10.531 14.226-12.725 5.987-2.296 11.526-3.443 16.619-3.443 6.384 0 11.724 1.297 16.017 3.893 4.291 2.494 7.434 5.238 9.43 8.231 2.099 2.994 3.596 5.338 4.49 7.034l-17.212 11.078c-1.592-3.294-3.338-5.889-5.238-7.786-1.895-1.895-4.188-2.842-6.879-2.842-3.794 0-6.788 1.496-8.98 4.49-2.195 2.993-3.292 7.534-3.292 13.621 0 6.586 1.298 11.427 3.893 14.521 2.59 3.094 6.282 4.641 11.074 4.641 3.795 0 6.938-.699 9.43-2.097 2.595-1.401 5.04-3.198 7.336-5.39l7.937 18.557c-2.396 1.993-5.94 3.99-10.632 5.991-4.689 1.892-10.377 2.838-17.064 2.838l-.019.008zm36.154-1.497v-99.99h24.998v30.387c2.094-1.497 4.639-2.794 7.635-3.893 2.993-1.197 6.585-1.795 10.775-1.795 8.781 0 15.317 2.494 19.608 7.483 4.392 4.994 6.588 12.031 6.588 21.112v46.704h-24.998v-43.714c0-4.188-.798-7.231-2.392-9.131-1.593-1.993-3.688-2.99-6.286-2.99-2.194 0-4.242.5-6.141 1.501-1.893.997-3.489 2.047-4.789 3.148v51.193h-24.998v-.015zm88.796 1.497c-3.991 0-7.135-1.147-9.43-3.44-2.293-2.295-3.439-5.239-3.439-8.832 0-3.593 1.146-6.587 3.439-8.98 2.295-2.394 5.439-3.591 9.43-3.591 3.792 0 6.836 1.197 9.131 3.591 2.298 2.393 3.447 5.387 3.447 8.98 0 3.593-1.146 6.536-3.439 8.829-2.192 2.295-5.236 3.443-9.132 3.443h-.007zm18.383-1.497v-73.643h24.847v73.643h-24.847zm12.567-79.619c-4.19 0-7.433-1.048-9.728-3.144-2.195-2.094-3.292-4.887-3.292-8.38 0-3.293 1.096-6.087 3.288-8.382 2.298-2.296 5.542-3.444 9.732-3.444 4.193 0 7.387 1.147 9.581 3.44 2.293 2.298 3.439 5.093 3.439 8.386 0 3.493-1.146 6.286-3.439 8.38-2.194 2.096-5.388 3.144-9.581 3.144zm56.156 81.116c-5.788 0-10.928-.948-15.42-2.842-4.49-1.996-8.332-4.691-11.524-8.085-3.092-3.492-5.485-7.583-7.181-12.272-1.6-4.79-2.4-9.98-2.4-15.571 0-8.28 1.796-15.514 5.389-21.702 3.694-6.088 8.285-10.328 13.773-12.722 5.588-2.396 11.376-3.594 17.363-3.594 8.579 0 15.662 1.995 21.248 5.986 5.687 3.992 9.681 8.981 11.981 14.967 2.293 5.99 3.44 11.679 3.44 17.068 0 5.587-.85 10.776-2.548 15.568-1.595 4.687-3.991 8.777-7.188 12.272-3.095 3.394-6.937 6.09-11.528 8.088-4.49 1.898-9.63 2.846-15.42 2.846l.015-.007zm0-19.162c4.19 0 7.234-1.745 9.131-5.235 1.895-3.593 2.842-8.383 2.842-14.37 0-5.689-.997-10.229-2.993-13.621-1.993-3.394-4.986-5.091-8.98-5.091-3.893 0-6.836 1.697-8.829 5.091-1.993 3.392-2.99 7.932-2.99 13.621 0 5.987.949 10.776 2.846 14.366 2.001 3.495 4.994 5.242 8.98 5.242l-.007-.003zM349.74 54.256c-1.936.09-3.564.262-4.885.516-1.321.235-2.379.542-3.176.922-.796.38-1.366.824-1.709 1.33a2.887 2.887 0 0 0-.516 1.656c0 1.176.344 2.017 1.031 2.524.706.507 1.62.76 2.741.76 1.376 0 2.561-.244 3.556-.733 1.013-.507 1.999-1.267 2.958-2.28v-4.695zm-15.361-12.078c3.202-2.93 7.056-4.396 11.562-4.396 1.628 0 3.085.271 4.369.814 1.285.525 2.37 1.266 3.257 2.225.887.941 1.556 2.072 2.008 3.393.471 1.32.706 2.768.706 4.342v17.588h-3.04c-.633 0-1.121-.091-1.465-.272-.344-.199-.615-.588-.814-1.167l-.598-2.008a26.415 26.415 0 0 1-2.062 1.682c-.67.47-1.366.869-2.09 1.194-.724.326-1.502.57-2.334.733-.814.181-1.719.272-2.714.272-1.176 0-2.262-.154-3.257-.462-.995-.325-1.855-.805-2.578-1.438a6.395 6.395 0 0 1-1.683-2.361c-.398-.941-.597-2.036-.597-3.284 0-.706.117-1.403.353-2.09a6.24 6.24 0 0 1 1.139-2.009c.543-.633 1.24-1.23 2.09-1.79.851-.562 1.891-1.05 3.121-1.466 1.249-.417 2.696-.751 4.343-1.005 1.646-.271 3.528-.434 5.645-.488v-1.629c0-1.863-.398-3.238-1.194-4.125-.796-.905-1.945-1.357-3.447-1.357-1.085 0-1.99.127-2.714.38a10.59 10.59 0 0 0-1.873.868c-.542.308-1.04.588-1.492.842a2.86 2.86 0 0 1-1.466.38c-.47 0-.868-.118-1.194-.353a3.234 3.234 0 0 1-.787-.869l-1.194-2.144zm52.685-3.88l-11.047 27.846h-6.079l-11.046-27.847h5.536c.507 0 .923.118 1.249.353.344.235.57.534.678.896l5.374 14.873a39.616 39.616 0 0 1 1.33 5.048c.181-.832.38-1.665.597-2.497.217-.832.48-1.683.787-2.551l5.483-14.873a1.83 1.83 0 0 1 .678-.896c.326-.235.715-.353 1.167-.353h5.293zm17.593 15.958c-1.936.09-3.564.262-4.885.516-1.321.235-2.379.542-3.175.922-.796.38-1.366.824-1.71 1.33a2.887 2.887 0 0 0-.516 1.656c0 1.176.344 2.017 1.032 2.524.705.507 1.619.76 2.741.76 1.375 0 2.56-.244 3.555-.733 1.013-.507 1.999-1.267 2.958-2.28v-4.695zm-15.361-12.078c3.202-2.93 7.056-4.396 11.562-4.396 1.628 0 3.085.271 4.369.814 1.285.525 2.371 1.266 3.257 2.225.887.941 1.556 2.072 2.009 3.393.47 1.32.705 2.768.705 4.342v17.588h-3.039c-.634 0-1.122-.091-1.466-.272-.344-.199-.615-.588-.814-1.167l-.597-2.008a26.61 26.61 0 0 1-2.063 1.682 12.65 12.65 0 0 1-2.09 1.194c-.724.326-1.502.57-2.334.733-.814.181-1.719.272-2.714.272-1.176 0-2.262-.154-3.257-.462-.995-.325-1.854-.805-2.578-1.438a6.395 6.395 0 0 1-1.683-2.361c-.398-.941-.597-2.036-.597-3.284 0-.706.118-1.403.353-2.09a6.225 6.225 0 0 1 1.14-2.009c.543-.633 1.239-1.23 2.09-1.79.85-.562 1.89-1.05 3.121-1.466 1.248-.417 2.696-.751 4.342-1.005 1.647-.271 3.528-.434 5.645-.488v-1.629c0-1.863-.398-3.238-1.194-4.125-.796-.905-1.945-1.357-3.447-1.357-1.085 0-1.99.127-2.714.38-.705.253-1.33.543-1.872.868-.543.308-1.041.588-1.493.842-.434.253-.923.38-1.466.38-.47 0-.868-.118-1.194-.353a3.234 3.234 0 0 1-.787-.869l-1.194-2.144zm35.164-3.88v27.846h-6.731V38.297h6.731zm.923-8.116c0 .58-.118 1.122-.353 1.629-.235.506-.552.95-.95 1.33a4.49 4.49 0 0 1-1.357.922 4.358 4.358 0 0 1-1.683.326 4.28 4.28 0 0 1-1.655-.326 4.602 4.602 0 0 1-1.33-.922 4.602 4.602 0 0 1-.923-1.33 4.092 4.092 0 0 1-.326-1.629c0-.597.109-1.158.326-1.682a4.51 4.51 0 0 1 .923-1.358c.38-.38.823-.678 1.33-.895a3.996 3.996 0 0 1 1.655-.353c.597 0 1.158.118 1.683.353a4.12 4.12 0 0 1 1.357.895c.398.38.715.833.95 1.358a4.07 4.07 0 0 1 .353 1.682zm12.696-4.37v40.331h-6.703v-40.33h6.703zm21.39 28.444c-1.936.09-3.565.262-4.886.516-1.32.235-2.379.542-3.175.922-.796.38-1.366.824-1.71 1.33a2.887 2.887 0 0 0-.516 1.656c0 1.176.344 2.017 1.032 2.524.705.507 1.619.76 2.741.76 1.375 0 2.56-.244 3.555-.733 1.014-.507 2-1.267 2.959-2.28v-4.695zm-15.362-12.078c3.203-2.93 7.057-4.396 11.562-4.396 1.628 0 3.085.271 4.37.814 1.284.525 2.37 1.266 3.256 2.225.887.941 1.557 2.072 2.009 3.393.47 1.32.706 2.768.706 4.342v17.588h-3.04c-.633 0-1.122-.091-1.466-.272-.344-.199-.615-.588-.814-1.167l-.597-2.008a26.422 26.422 0 0 1-2.063 1.682 12.65 12.65 0 0 1-2.09 1.194c-.723.326-1.501.57-2.334.733-.814.181-1.719.272-2.714.272-1.176 0-2.261-.154-3.257-.462-.995-.325-1.854-.805-2.578-1.438a6.395 6.395 0 0 1-1.683-2.361c-.398-.941-.597-2.036-.597-3.284 0-.706.118-1.403.353-2.09a6.225 6.225 0 0 1 1.14-2.009c.543-.633 1.239-1.23 2.09-1.79.85-.562 1.891-1.05 3.121-1.466 1.248-.417 2.696-.751 4.342-1.005 1.647-.271 3.529-.434 5.646-.488v-1.629c0-1.863-.398-3.238-1.195-4.125-.796-.905-1.945-1.357-3.446-1.357-1.086 0-1.991.127-2.714.38a10.59 10.59 0 0 0-1.873.868c-.543.308-1.041.588-1.493.842-.434.253-.923.38-1.465.38-.471 0-.869-.118-1.195-.353a3.25 3.25 0 0 1-.787-.869l-1.194-2.144zm34.92 16.746c.76.923 1.583 1.574 2.47 1.954a7.28 7.28 0 0 0 2.849.57c1.032 0 1.955-.18 2.769-.543.832-.38 1.538-.959 2.117-1.737.579-.796 1.022-1.8 1.33-3.012.307-1.23.461-2.696.461-4.397 0-3.058-.507-5.265-1.52-6.622-1.013-1.375-2.47-2.063-4.37-2.063-1.284 0-2.406.299-3.365.896-.959.579-1.873 1.402-2.741 2.47v12.484zm0-17.207c1.122-1.176 2.361-2.108 3.718-2.795 1.375-.706 2.94-1.059 4.695-1.059 1.611 0 3.058.317 4.343.95a9.109 9.109 0 0 1 3.311 2.741c.923 1.176 1.628 2.606 2.117 4.288.489 1.683.733 3.574.733 5.673 0 2.261-.281 4.315-.842 6.16-.56 1.846-1.366 3.43-2.415 4.75a10.86 10.86 0 0 1-3.745 3.04c-1.466.724-3.094 1.086-4.886 1.086-.868 0-1.655-.09-2.361-.272a8.335 8.335 0 0 1-3.61-1.818 16 16 0 0 1-1.411-1.493l-.299 1.873c-.108.47-.298.805-.569 1.004-.254.199-.607.299-1.059.299h-4.424V25.813h6.704v15.904zm30.879-15.904v40.33h-6.703v-40.33h6.703zm24.619 23.205c0-.869-.126-1.683-.379-2.443a5.672 5.672 0 0 0-1.086-2.035c-.489-.58-1.113-1.032-1.873-1.357-.742-.344-1.61-.516-2.605-.516-1.936 0-3.465.552-4.587 1.655-1.104 1.104-1.809 2.67-2.117 4.696h12.647zm-12.783 4.044c.109 1.43.362 2.669.76 3.718.398 1.031.923 1.89 1.574 2.578a6.425 6.425 0 0 0 2.307 1.52c.905.326 1.9.489 2.986.489 1.085 0 2.017-.127 2.795-.38a12.492 12.492 0 0 0 2.063-.842 34.088 34.088 0 0 0 1.547-.84c.452-.254.887-.38 1.303-.38.561 0 .977.207 1.248.623l1.927 2.443a11.47 11.47 0 0 1-2.497 2.198 14.856 14.856 0 0 1-2.904 1.412c-.995.344-2.017.588-3.067.733a21.665 21.665 0 0 1-3.012.217c-1.936 0-3.737-.317-5.401-.95a12.337 12.337 0 0 1-4.343-2.85c-1.23-1.267-2.198-2.823-2.904-4.668-.705-1.864-1.058-4.017-1.058-6.46 0-1.9.307-3.682.922-5.346.616-1.683 1.493-3.14 2.633-4.37 1.158-1.248 2.56-2.235 4.207-2.958 1.665-.724 3.537-1.086 5.618-1.086 1.755 0 3.374.28 4.858.841a10.51 10.51 0 0 1 3.827 2.47c1.068 1.068 1.9 2.389 2.497 3.963.615 1.556.923 3.338.923 5.346 0 1.014-.109 1.701-.326 2.063-.217.344-.633.516-1.248.516h-17.235zm49.36-15.199c2.063 0 3.936.335 5.619 1.004 1.7.67 3.148 1.62 4.342 2.85 1.212 1.23 2.144 2.732 2.796 4.505.651 1.773.977 3.755.977 5.944 0 2.208-.326 4.198-.977 5.971-.652 1.773-1.584 3.284-2.796 4.532-1.194 1.249-2.642 2.208-4.342 2.877-1.683.67-3.556 1.005-5.619 1.005-2.08 0-3.971-.335-5.672-1.005-1.701-.67-3.157-1.628-4.37-2.877-1.194-1.248-2.126-2.759-2.795-4.532-.651-1.773-.977-3.764-.977-5.97 0-2.19.326-4.172.977-5.945.669-1.773 1.601-3.275 2.795-4.505 1.213-1.23 2.669-2.18 4.37-2.85 1.701-.67 3.592-1.004 5.672-1.004zm0 23.53c2.316 0 4.026-.777 5.13-2.333 1.122-1.556 1.683-3.836 1.683-6.84 0-3.003-.561-5.292-1.683-6.866-1.104-1.574-2.814-2.361-5.13-2.361-2.352 0-4.098.796-5.238 2.388-1.121 1.574-1.682 3.854-1.682 6.84 0 2.985.561 5.265 1.682 6.839 1.14 1.556 2.886 2.334 5.238 2.334zm25.117-19.676a17.622 17.622 0 0 1 1.765-1.547 10.806 10.806 0 0 1 1.981-1.221 10.36 10.36 0 0 1 2.252-.787 10.69 10.69 0 0 1 2.606-.299c1.52 0 2.868.262 4.044.787 1.176.507 2.153 1.23 2.931 2.171.796.923 1.393 2.036 1.791 3.339.417 1.284.625 2.705.625 4.26v17.724h-6.704V48.42c0-1.701-.389-3.013-1.167-3.936-.778-.94-1.963-1.411-3.556-1.411a6.977 6.977 0 0 0-3.256.787c-1.014.525-1.973 1.24-2.877 2.144v20.139h-6.704V38.297h4.098c.869 0 1.439.407 1.71 1.222l.461 2.198z" fill="#fff"/></svg>