<?xml version="1.0" encoding="utf-8"?>
<svg xmlns="http://www.w3.org/2000/svg" xmlns:xlink="http://www.w3.org/1999/xlink" style="margin: auto; background: none; display: block; shape-rendering: auto; animation-play-state: running; animation-delay: 0s;" width="200px" height="200px" viewBox="0 0 100 100" preserveAspectRatio="xMidYMid">
<g transform="translate(50 50)" style="animation-play-state: running; animation-delay: 0s;">
  <g transform="scale(0.8)" style="animation-play-state: running; animation-delay: 0s;">
    <g transform="translate(-50 -50)" style="animation-play-state: running; animation-delay: 0s;">
      <g style="animation-play-state: running; animation-delay: 0s;" transform="rotate(65.6099 50 50)">
        <animateTransform attributeName="transform" type="rotate" repeatCount="indefinite" values="0 50 50;360 50 50" keyTimes="0;1" dur="1.3157894736842106s" style="animation-play-state: running; animation-delay: 0s;"></animateTransform>
        <path fill-opacity="0.8" fill="#1d3f72" d="M50 50L50 0A50 50 0 0 1 100 50Z" style="animation-play-state: running; animation-delay: 0s;"></path>
      </g>
      <g style="animation-play-state: running; animation-delay: 0s;" transform="rotate(319.208 50 50)">
        <animateTransform attributeName="transform" type="rotate" repeatCount="indefinite" values="0 50 50;360 50 50" keyTimes="0;1" dur="1.7543859649122806s" style="animation-play-state: running; animation-delay: 0s;"></animateTransform>
        <path fill-opacity="0.8" fill="#5699d2" d="M50 50L50 0A50 50 0 0 1 100 50Z" transform="rotate(90 50 50)" style="animation-play-state: running; animation-delay: 0s;"></path>
      </g>
      <g style="animation-play-state: running; animation-delay: 0s;" transform="rotate(212.805 50 50)">
        <animateTransform attributeName="transform" type="rotate" repeatCount="indefinite" values="0 50 50;360 50 50" keyTimes="0;1" dur="2.6315789473684212s" style="animation-play-state: running; animation-delay: 0s;"></animateTransform>
        <path fill-opacity="0.8" fill="#d8ebf9" d="M50 50L50 0A50 50 0 0 1 100 50Z" transform="rotate(180 50 50)" style="animation-play-state: running; animation-delay: 0s;"></path>
      </g>
      <g style="animation-play-state: running; animation-delay: 0s;" transform="rotate(106.402 50 50)">
        <animateTransform attributeName="transform" type="rotate" repeatCount="indefinite" values="0 50 50;360 50 50" keyTimes="0;1" dur="5.2631578947368425s" style="animation-play-state: running; animation-delay: 0s;"></animateTransform>
        <path fill-opacity="0.8" fill="#71c2cc" d="M50 50L50 0A50 50 0 0 1 100 50Z" transform="rotate(270 50 50)" style="animation-play-state: running; animation-delay: 0s;"></path>
      </g>
    </g>
  </g>
</g>
<!-- [ldio] generated by https://loading.io/ --></svg>