<?xml version="1.0"?>
<svg xmlns="http://www.w3.org/2000/svg" id="Capa_1" enable-background="new 0 0 512 512" height="512px" viewBox="0 0 512 512" width="512px"><g><g><g><path d="m496 0h-210c-8.284 0-15 6.716-15 15v260c0 8.284 6.716 15 15 15h143.787l55.606 55.606c2.869 2.87 6.706 4.394 10.609 4.394 1.933 0 3.882-.374 5.737-1.142 5.605-2.322 9.26-7.792 9.26-13.858v-320c.001-8.284-6.715-15-14.999-15zm-40 130h-10.978c-3.123 23.867-13.59 45.455-29.054 62.414 10.691 4.857 22.545 7.586 35.032 7.586 8.284 0 15 6.716 15 15s-6.716 15-15 15c-21.972 0-42.521-6.198-60-16.931-17.478 10.733-38.028 16.931-60 16.931-8.284 0-15-6.716-15-15s6.716-15 15-15c12.487 0 24.342-2.729 35.032-7.586-15.464-16.959-25.932-38.547-29.054-62.414h-10.978c-8.284 0-15-6.716-15-15s6.716-15 15-15h50v-25c0-8.284 6.716-15 15-15s15 6.716 15 15v25h50c8.284 0 15 6.716 15 15s-6.716 15-15 15z" data-original="#000000" class="active-path" data-old_color="#000000" fill="#4949E7"/><path d="m391 175.148c12.068-12.039 20.523-27.681 23.648-45.148h-47.295c3.124 17.467 11.579 33.11 23.647 45.148z" data-original="#000000" class="active-path" data-old_color="#000000" fill="#4949E7"/></g><g><path d="m100.59 327.624h41.01l-20.411-54.086z" data-original="#000000" class="active-path" data-old_color="#000000" fill="#4949E7"/><path d="m226 162h-210c-8.284 0-15 6.716-15 15v320c0 6.067 3.654 11.537 9.26 13.858 1.855.769 3.805 1.142 5.737 1.142 3.903 0 7.74-1.524 10.609-4.394l55.607-55.606h143.787c8.284 0 15-6.716 15-15v-260c0-8.284-6.716-15-15-15zm-44.438 229.034c-1.743.658-3.534.97-5.293.97-6.062 0-11.77-3.701-14.037-9.708l-9.311-24.673h-63.757l-9.413 24.715c-2.948 7.741-11.61 11.628-19.356 8.679-7.741-2.948-11.627-11.615-8.679-19.356l52.569-138.028c.043-.114.088-.228.135-.34 2.803-6.852 9.397-11.284 16.8-11.292h.021c7.396 0 13.99 4.416 16.806 11.256.057.137.11.275.163.413l52.092 138.034c2.924 7.751-.989 16.405-8.74 19.33z" data-original="#000000" class="active-path" data-old_color="#000000" fill="#4949E7"/></g></g></g> </svg>
